<?xml version="1.0" standalone="no"?>
<!DOCTYPE svg PUBLIC "-//W3C//DTD SVG 1.1//EN" "http://www.w3.org/Graphics/SVG/1.1/DTD/svg11.dtd" >
<svg xmlns="http://www.w3.org/2000/svg" xmlns:xlink="http://www.w3.org/1999/xlink" version="1.1">
<metadata>
Created by FontForge 20150318 at Fri Sep 25 14:01:13 2015
 By uniteet7
Copyright (c) 2012 by Bruno Mello. All rights reserved.
</metadata>
<defs>
<font id="KelsonSansBold" horiz-adv-x="564" >
  <font-face 
    font-family="KelsonSansBold"
    font-weight="700"
    font-stretch="normal"
    units-per-em="1000"
    panose-1="2 0 5 0 0 0 0 0 0 0"
    ascent="750"
    descent="-250"
    x-height="589"
    cap-height="769"
    bbox="-170 -252.194 1131 986"
    underline-thickness="50"
    underline-position="-50"
    unicode-range="U+000D-FB02"
  />
<missing-glyph horiz-adv-x="628" 
d="M42 773h538v-773h-538v773zM157 504h71q0 54 19.5 75t70.5 21q47 0 67 -25.5t21 -89.5v-1q0 -34 -11 -56.5t-27 -32t-35.5 -21.5t-35.5 -24.5t-27 -41t-11 -71.5h72q0 39 15.5 62t37.5 34.5t44 25t37.5 44.5t15.5 82v2q0 182 -161 182q-52 0 -86.5 -13.5t-50 -39t-21 -51
t-5.5 -61.5zM250 145q0 -28 22.5 -39t45 1t22.5 38q0 28 -22.5 39t-45 -0.5t-22.5 -38.5z" />
    <glyph glyph-name=".notdef" horiz-adv-x="628" 
d="M42 773h538v-773h-538v773zM157 504h71q0 54 19.5 75t70.5 21q47 0 67 -25.5t21 -89.5v-1q0 -34 -11 -56.5t-27 -32t-35.5 -21.5t-35.5 -24.5t-27 -41t-11 -71.5h72q0 39 15.5 62t37.5 34.5t44 25t37.5 44.5t15.5 82v2q0 182 -161 182q-52 0 -86.5 -13.5t-50 -39t-21 -51
t-5.5 -61.5zM250 145q0 -28 22.5 -39t45 1t22.5 38q0 28 -22.5 39t-45 -0.5t-22.5 -38.5z" />
    <glyph glyph-name=".null" horiz-adv-x="0" 
 />
    <glyph glyph-name="nonmarkingreturn" horiz-adv-x="333" 
 />
    <glyph glyph-name="CR" unicode="&#xd;" horiz-adv-x="268" 
 />
    <glyph glyph-name="space" unicode=" " horiz-adv-x="251" 
 />
    <glyph glyph-name="exclam" unicode="!" horiz-adv-x="268" 
d="M212 770l-10 -574h-126v574h136zM60 72q0 36 24 56.5t53.5 20.5t53.5 -20.5t24 -56.5q0 -35 -24 -55.5t-53.5 -20.5t-53.5 20t-24 56z" />
    <glyph glyph-name="quotedbl" unicode="&#x22;" horiz-adv-x="350" 
d="M147 542h-108l-4 227h116zM322 542h-108l-4 227h116z" />
    <glyph glyph-name="numbersign" unicode="#" horiz-adv-x="701" 
d="M84 458l23 107h100l41 198h113l-41 -198h145l41 198h113l-41 -198h98l-23 -107h-98l-29 -144h98l-23 -107h-97l-42 -207h-114l42 207h-145l-42 -207h-113l42 207h-100l23 107h100l29 144h-100zM297 458l-29 -144h145l29 144h-145z" />
    <glyph glyph-name="dollar" unicode="$" horiz-adv-x="589" 
d="M243 -109v104q-199 21 -199 214h139q2 -47 28 -69t89 -22t92 28.5t29 93.5q0 19 -5.5 33.5t-18.5 24.5t-24 16.5t-33.5 11.5t-34.5 7t-38.5 5t-35.5 4q-179 23 -179 213t191 215v108h123v-109q161 -26 176 -200h-139q-3 47 -28 65.5t-77 18.5q-58 0 -82.5 -21.5
t-24.5 -75.5q0 -20 4 -35t14.5 -25.5t20.5 -16.5t30.5 -11t34.5 -7t43 -5.5t47 -6.5q38 -6 65.5 -16.5t54 -32.5t40.5 -61t14 -94q0 -116 -46 -176t-147 -73v-105h-123z" />
    <glyph glyph-name="percent" unicode="%" horiz-adv-x="827" 
d="M639 0q-75 0 -110.5 36t-35.5 112v86q0 148 146 148q76 0 112 -36t36 -112v-86q0 -76 -36 -112t-112 -36zM639 107q25 0 34.5 13.5t9.5 42.5v57q0 29 -9.5 42t-34.5 13q-24 0 -33.5 -13t-9.5 -42v-57q0 -29 9.5 -42.5t33.5 -13.5zM176 395q-75 0 -110.5 36t-35.5 112v86
q0 148 146 148q76 0 112 -36t36 -112v-86q0 -76 -36 -112t-112 -36zM176 502q25 0 34.5 13.5t9.5 42.5v57q0 29 -9.5 42t-34.5 13q-24 0 -33.5 -13t-9.5 -42v-57q0 -29 9.5 -42.5t33.5 -13.5zM452 784l135 -13l-224 -785l-134 14z" />
    <glyph glyph-name="ampersand" unicode="&#x26;" horiz-adv-x="656" 
d="M626 118l1 -132q-121 4 -151 95q-21 -46 -72.5 -71.5t-102.5 -25.5q-119 0 -184 58.5t-65 180.5q0 60 35.5 112.5t94.5 76.5q-94 41 -94 158q0 90 66.5 153t163.5 63q108 0 165.5 -55t54.5 -153h-133q1 43 -23 61.5t-64 18.5q-38 0 -64 -26.5t-26 -63.5t26 -65.5
t64 -28.5h304v-122h-79v-137q0 -96 83 -97zM408 217v135h-91q-55 0 -89.5 -35.5t-34.5 -88.5q-1 -55 30 -85t80 -30q43 0 74 27t31 77z" />
    <glyph glyph-name="quotesingle" unicode="'" horiz-adv-x="184" 
d="M147 542h-108l-4 227h116z" />
    <glyph glyph-name="parenleft" unicode="(" horiz-adv-x="303" 
d="M196 21q0 -45 19.5 -68t64.5 -21v-139q-113 -3 -167.5 58t-54.5 168v544q0 107 54.5 168t167.5 58v-139q-45 2 -64.5 -21t-19.5 -68v-540z" />
    <glyph glyph-name="parenright" unicode=")" horiz-adv-x="312" 
d="M115 21v540q0 45 -19.5 68t-64.5 21v139q113 3 167.5 -58t54.5 -168v-544q0 -107 -54.5 -168t-167.5 -58v139q45 -2 64.5 21t19.5 68z" />
    <glyph glyph-name="asterisk" unicode="*" horiz-adv-x="351" 
d="M331 574l-87 -87q-35 34 -51 83q-16 2 -25 1q-15 -48 -51 -84l-87 87q38 38 82 51q2 8 2 24q-50 17 -85 52l88 88q36 -36 51 -84h24q14 45 52 83l87 -87q-36 -36 -83 -51q-1 -8 -1 -24q49 -15 84 -52z" />
    <glyph glyph-name="plus" unicode="+" horiz-adv-x="482" 
d="M444 430v-114h-144v-148h-123v148h-144v114h144v149h123v-149h144z" />
    <glyph glyph-name="comma" unicode="," horiz-adv-x="209" 
d="M41 -164l-41 69q17 12 26.5 23.5t13.5 29t5.5 25t0.5 36t-1 37.5h116q7 -87 -22 -140.5t-98 -79.5z" />
    <glyph glyph-name="hyphen" unicode="-" horiz-adv-x="528" 
d="M472 397v-115h-411v115h411z" />
    <glyph glyph-name="period" unicode="." horiz-adv-x="241" 
d="M50 72q0 36 24 56.5t53.5 20.5t53.5 -20.5t24 -56.5q0 -35 -24 -55.5t-53.5 -20.5t-53.5 20t-24 56z" />
    <glyph glyph-name="slash" unicode="/" horiz-adv-x="431" 
d="M260 770h128l-221 -771h-127z" />
    <glyph glyph-name="zero" unicode="0" horiz-adv-x="558" 
d="M281 -2q-117 0 -173 55.5t-56 174.5v311q0 116 56.5 173t172.5 57q117 0 173 -55.5t56 -174.5v-311q0 -119 -56 -174.5t-173 -55.5zM281 120q51 0 71 28.5t20 86.5v297q0 58 -20 86.5t-71 28.5t-71 -28.5t-20 -86.5v-297q0 -58 20 -86.5t71 -28.5z" />
    <glyph glyph-name="one" unicode="1" horiz-adv-x="423" 
d="M24 0v113h125v540h-98v119h237v-659h119v-113h-383z" />
    <glyph glyph-name="two" unicode="2" horiz-adv-x="535" 
d="M49 0v158q0 66 17 115t44 76t59.5 46.5t65 34t59.5 30.5t44 43.5t17 66.5q0 83 -80 83q-46 0 -65 -21.5t-19 -86.5h-138q0 117 53 173.5t170 56.5q109 0 163 -56t54 -147q0 -67 -17 -113.5t-44 -71t-59.5 -41t-65 -29t-59.5 -29t-44 -48.5t-17 -79v-25h295v-136h-433z
" />
    <glyph glyph-name="three" unicode="3" horiz-adv-x="536" 
d="M40 242h133q0 -115 87 -115q48 0 71 24.5t23 81.5q0 112 -101 112h-73v123h73q51 0 74.5 28t23.5 73q0 39 -21.5 62.5t-61.5 23.5q-39 0 -62.5 -23.5t-23.5 -73.5h-129q0 114 52.5 167.5t163.5 53.5q93 0 153 -54.5t60 -158.5q0 -45 -20.5 -90.5t-64.5 -65.5
q54 -20 75 -63t21 -113q0 -112 -59.5 -175.5t-172.5 -63.5q-221 0 -221 247z" />
    <glyph glyph-name="four" unicode="4" horiz-adv-x="567" 
d="M302 155h-288l-16 96l304 521h133v-492h74v-125h-74v-155h-133v155zM302 280v114l15 170l-153 -284h138z" />
    <glyph glyph-name="five" unicode="5" horiz-adv-x="540" 
d="M40 259h137q2 -76 22 -107.5t72 -31.5q51 0 71 28.5t20 86.5v48q0 58 -19 85t-70 27h-228v374h420v-130h-289v-119h97q117 0 172 -55.5t55 -174.5v-62q0 -119 -56 -174.5t-173 -55.5q-119 0 -174.5 59.5t-56.5 201.5z" />
    <glyph glyph-name="six" unicode="6" horiz-adv-x="562" 
d="M451 770l4 -14q-65 -35 -117 -90.5t-80 -104.5q14 1 49 1q95 0 148.5 -52.5t53.5 -159.5v-130q0 -123 -52.5 -176t-174.5 -53q-123 0 -175 53t-52 176v130q0 129 64.5 241t165.5 179h166zM282 122q48 0 68 20.5t20 77.5v130q0 51 -20 69.5t-68 18.5t-68 -18.5t-20 -69.5
v-130q0 -57 20 -77.5t68 -20.5z" />
    <glyph glyph-name="seven" unicode="7" horiz-adv-x="468" 
d="M447 769v-47l-246 -722h-148l220 639h-260v130h434z" />
    <glyph glyph-name="eight" unicode="8" horiz-adv-x="548" 
d="M269 -10q-117 0 -173 55.5t-56 174.5v54q0 57 18.5 94t61.5 63q-35 23 -52 64t-17 81q0 88 54.5 143t164.5 55t164.5 -55t54.5 -143q0 -39 -18.5 -82t-47.5 -63q39 -31 57 -67t18 -90v-54q0 -119 -56 -174.5t-173 -55.5zM269 112q51 0 71 28.5t20 86.5v40
q0 57 -19.5 83.5t-71.5 26.5t-71.5 -26t-19.5 -84v-40q0 -58 20 -86.5t71 -28.5zM270 486h7q34 1 54 27t20 60q0 36 -21.5 57.5t-59.5 21.5t-59.5 -21.5t-21.5 -57.5t22 -61.5t59 -25.5z" />
    <glyph glyph-name="nine" unicode="9" horiz-adv-x="562" 
d="M113 0l-4 14q65 35 117 90.5t80 104.5q-14 -1 -49 -1q-95 0 -148.5 52.5t-53.5 159.5v130q0 123 52.5 176t174.5 53q123 0 175 -53t52 -176v-130q0 -129 -64.5 -241t-165.5 -179h-166zM282 648q-48 0 -68 -20.5t-20 -77.5v-130q0 -51 20 -69.5t68 -18.5t68 18.5t20 69.5
v130q0 57 -20 77.5t-68 20.5z" />
    <glyph glyph-name="colon" unicode=":" horiz-adv-x="249" 
d="M50 72q0 36 24 56.5t53.5 20.5t53.5 -20.5t24 -56.5q0 -35 -24 -55.5t-53.5 -20.5t-53.5 20t-24 56zM50 414q0 36 24 56.5t53.5 20.5t53.5 -20.5t24 -56.5q0 -35 -24 -55.5t-53.5 -20.5t-53.5 20t-24 56z" />
    <glyph glyph-name="semicolon" unicode=";" horiz-adv-x="262" 
d="M56 414q0 36 24 56.5t53.5 20.5t53.5 -20.5t24 -56.5q0 -35 -24 -55.5t-53.5 -20.5t-53.5 20t-24 56zM70 -164l-56 70q12 9 20.5 17t14 19t8.5 17.5t4.5 21.5t2 20.5t0 26.5t-0.5 28h129q14 -168 -122 -220z" />
    <glyph glyph-name="less" unicode="&#x3c;" horiz-adv-x="420" 
d="M276 570l81 -87l-161 -149q27 -25 84.5 -76.5t79.5 -71.5l-84 -87l-226 211v48z" />
    <glyph glyph-name="equal" unicode="=" horiz-adv-x="556" 
d="M478 503v-120h-400v120h400zM478 287v-120h-400v120h400z" />
    <glyph glyph-name="greater" unicode="&#x3e;" horiz-adv-x="421" 
d="M371 354v-47l-226 -210l-83 84l162 148q-12 11 -160 153l81 86z" />
    <glyph glyph-name="question" unicode="?" horiz-adv-x="534" 
d="M167 573h-137q0 215 225 219q102 0 165.5 -54.5t63.5 -169.5v-60q0 -60 -18 -100.5t-43 -61.5t-50.5 -38.5t-43.5 -44t-18 -65.5h-138q0 54 18 94t43.5 63.5t51.5 43t44 45.5t18 60v63q0 99 -91 99q-90 0 -90 -93zM165 72q0 48 38.5 67.5t77.5 0t39 -67.5
q0 -35 -24 -55.5t-53.5 -20.5t-53.5 20t-24 56z" />
    <glyph glyph-name="at" unicode="@" horiz-adv-x="798" 
d="M397 298q39 0 39 52v100h-40q-40 0 -40 -42v-64q0 -46 41 -46zM479 631h-160q-71 0 -95 -27.5t-24 -87.5v-280q0 -60 24 -87.5t95 -27.5h180v-122h-180q-136 0 -196.5 55t-60.5 175v294q0 123 59 176.5t198 53.5h160q140 0 201.5 -54t61.5 -176v-182q0 -95 -41.5 -131.5
t-119.5 -36.5q-84 0 -110 61q-13 -14 -21.5 -21t-28.5 -15t-45 -8q-58 0 -90 32t-32 92v120q0 58 41.5 90.5t100.5 32.5h141v-213q0 -24 1 -35.5t9 -22.5t24 -11q20 0 26.5 15.5t6.5 51.5v184q0 58 -24.5 81.5t-100.5 23.5z" />
    <glyph glyph-name="A" unicode="A" horiz-adv-x="578" 
d="M359 769l210 -769h-142l-39 136h-197l-40 -136h-142l213 769h137zM225 271h128l-64 285z" />
    <glyph glyph-name="B" unicode="B" horiz-adv-x="623" 
d="M60 0v770h229q103 0 165 -56.5t62 -147.5q0 -42 -14 -74.5t-56 -60.5q62 -13 101.5 -64t39.5 -128q0 -128 -65.5 -183.5t-207.5 -55.5h-254zM197 347v-222h119q75 0 99 25.5t24 85.5t-26.5 85.5t-98.5 25.5h-117zM289 652h-91v-178h92q41 0 62.5 25.5t21.5 64.5
q0 36 -19.5 62t-65.5 26z" />
    <glyph glyph-name="C" unicode="C" horiz-adv-x="623" 
d="M441 238h138q0 -126 -62.5 -183t-200.5 -57q-136 0 -196.5 55t-60.5 175v313q0 123 59 176.5t198 53.5q140 0 201.5 -55.5t61.5 -183.5h-138q0 62 -25 89.5t-100 27.5q-71 0 -95 -27.5t-24 -87.5v-299q0 -60 24 -87.5t95 -27.5t98 28.5t27 89.5z" />
    <glyph glyph-name="D" unicode="D" horiz-adv-x="640" 
d="M71 770h253q140 0 201.5 -54t61.5 -176v-314q0 -119 -62.5 -172.5t-200.5 -53.5h-253v770zM208 125h116q72 0 98.5 25t26.5 83v300q0 60 -24 85.5t-99 25.5h-118v-519z" />
    <glyph glyph-name="E" unicode="E" 
d="M70 770h443v-120h-305v-198h260v-124h-260v-203h319v-126h-457v771z" />
    <glyph glyph-name="F" unicode="F" horiz-adv-x="552" 
d="M520 770v-126h-314v-192h266v-125h-266v-328h-137v771h451z" />
    <glyph glyph-name="G" unicode="G" horiz-adv-x="631" 
d="M318 313v125h259v-200q0 -127 -63 -184.5t-200 -57.5q-136 0 -196.5 57t-60.5 182v309q0 120 60 175t197 55q140 0 201.5 -53.5t61.5 -176.5h-138q0 58 -24.5 83t-100.5 25q-70 0 -94.5 -28.5t-24.5 -86.5v-302q0 -60 24 -87.5t95 -27.5q73 0 104 29.5t31 88.5v75h-131z
" />
    <glyph glyph-name="H" unicode="H" horiz-adv-x="655" 
d="M586 757v-757h-137v304h-240v-305h-139v758h139v-327h240v327h137z" />
    <glyph glyph-name="I" unicode="I" horiz-adv-x="279" 
d="M209 769v-770h-139v770h139z" />
    <glyph glyph-name="J" unicode="J" horiz-adv-x="526" 
d="M466 770v-545q0 -119 -56 -174.5t-173 -55.5q-229 0 -229 237h138q0 -58 20 -86.5t71 -28.5t71 28.5t20 86.5v538h138z" />
    <glyph glyph-name="K" unicode="K" horiz-adv-x="630" 
d="M626 0h-168l-217 309h-39v-309h-137v770h138v-324h37l202 324h161l-251 -385z" />
    <glyph glyph-name="L" unicode="L" horiz-adv-x="530" 
d="M506 126v-126h-436v770h139v-644h297z" />
    <glyph glyph-name="M" unicode="M" horiz-adv-x="720" 
d="M376 182h-31l-153 310l16 -220v-272h-138v770h133l157 -341l158 341h133v-770h-138v272l16 220z" />
    <glyph glyph-name="N" unicode="N" horiz-adv-x="623" 
d="M554 769v-769h-134l-226 488l12 -292v-196h-137v769h137l226 -507l-15 325v182h137z" />
    <glyph glyph-name="O" unicode="O" horiz-adv-x="641" 
d="M316 -7q-136 0 -196.5 55t-60.5 175v326q0 123 59 176.5t198 53.5q140 0 201.5 -54t61.5 -176v-326q0 -119 -63 -174.5t-200 -55.5zM316 115q71 0 98 28t27 87v312q0 59 -25 87t-100 28q-70 0 -94.5 -28.5t-24.5 -86.5v-312q0 -60 24 -87.5t95 -27.5z" />
    <glyph glyph-name="P" unicode="P" horiz-adv-x="579" 
d="M70 770h194q141 0 207 -54.5t66 -175.5v-71q0 -119 -67.5 -176t-205.5 -57h-53v-236h-141v770zM210 369h54q73 0 103 25.5t30 81.5v57q0 58 -27.5 84.5t-103.5 26.5h-56v-275z" />
    <glyph glyph-name="Q" unicode="Q" horiz-adv-x="639" 
d="M316 -2q-136 0 -196.5 55t-60.5 175v319q0 123 59.5 177.5t197.5 54.5q139 0 201 -55t62 -177v-312q0 -179 -132 -221q2 -23 6 -36t15.5 -25.5t35.5 -16t62 0.5v-110q-119 -16 -182 28.5t-68 142.5zM316 120q71 0 98 28t27 87v305q0 60 -25 87.5t-100 27.5
q-71 0 -95 -27.5t-24 -87.5v-305q0 -60 24 -87.5t95 -27.5z" />
    <glyph glyph-name="R" unicode="R" horiz-adv-x="594" 
d="M573 0h-161l-153 271h-51v-271h-138v770h194q141 0 207 -55t66 -176v-40q0 -86 -31.5 -135t-101.5 -71zM207 398h57q72 0 100 25.5t28 82.5v26q0 59 -25 85t-101 26h-59v-245z" />
    <glyph glyph-name="S" unicode="S" horiz-adv-x="604" 
d="M403 569q-3 47 -28 65.5t-77 18.5q-58 0 -82.5 -21.5t-24.5 -75.5q0 -20 4 -35t14.5 -25.5t20.5 -16.5t30.5 -11t34.5 -7t43 -5.5t47 -6.5q38 -6 65.5 -16.5t54 -32.5t40.5 -61t14 -94q0 -134 -61.5 -193.5t-200.5 -59.5q-253 0 -253 217h139q2 -47 28 -69t89 -22
t92 28.5t29 93.5q0 19 -5.5 33.5t-18.5 24.5t-24 16.5t-33.5 11.5t-34.5 7t-38.5 5t-35.5 4q-179 23 -179 213q0 107 63.5 163t182.5 56q111 0 173 -47.5t71 -157.5h-139z" />
    <glyph glyph-name="T" unicode="T" horiz-adv-x="472" 
d="M464 767v-123h-159v-644h-137v644h-160v123h456z" />
    <glyph glyph-name="U" unicode="U" horiz-adv-x="637" 
d="M433 235v534h138v-541q0 -117 -67.5 -176t-191.5 -59q-252 0 -252 235v541h138v-534q0 -120 114 -120q60 0 90.5 32t30.5 88z" />
    <glyph glyph-name="V" unicode="V" horiz-adv-x="577" 
d="M427 769h141l-207 -770h-144l-208 770h141l67 -235l72 -360l71 362z" />
    <glyph glyph-name="W" unicode="W" horiz-adv-x="926" 
d="M461 415l-103 -416h-145l-204 771h142l76 -266l55 -314l126 555h106l136 -555l45 314l76 266h142l-193 -771h-146z" />
    <glyph glyph-name="X" unicode="X" horiz-adv-x="558" 
d="M23 770h150l51 -125l55 -164l54 161l52 128h150l-164 -381l178 -389h-149l-60 128l-61 167l-65 -176l-56 -119h-149l178 389z" />
    <glyph glyph-name="Y" unicode="Y" horiz-adv-x="522" 
d="M376 770h149l-194 -448v-323h-137v323l-196 448h149l60 -142l56 -165l56 169z" />
    <glyph glyph-name="Z" unicode="Z" horiz-adv-x="527" 
d="M56 770h458l-296 -648h279v-122h-483l301 647h-259v123z" />
    <glyph glyph-name="bracketleft" unicode="[" horiz-adv-x="368" 
d="M335 -14v-134h-244v939h244v-134h-109v-671h109z" />
    <glyph glyph-name="backslash" unicode="\" horiz-adv-x="445" 
d="M187 769l220 -770h-141l-221 770h142z" />
    <glyph glyph-name="bracketright" unicode="]" horiz-adv-x="377" 
d="M286 791v-939h-244v134h108v671h-108v134h244z" />
    <glyph glyph-name="asciicircum" unicode="^" horiz-adv-x="645" 
d="M186 428h-131l-1 6l219 329h78l225 -329v-6h-139l-125 196z" />
    <glyph glyph-name="underscore" unicode="_" horiz-adv-x="524" 
d="M491 134v-137h-456v137h456z" />
    <glyph glyph-name="grave" unicode="`" horiz-adv-x="245" 
d="M76 625l-76 136h138l57 -136h-119z" />
    <glyph glyph-name="a" unicode="a" horiz-adv-x="543" 
d="M355 235q-189 19 -189 -65q0 -52 81 -52q96 0 108 117zM185 387h-131q-7 107 47.5 156.5t163.5 49.5q114 0 167.5 -57t53.5 -173v-363h-112l-13 68q-55 -76 -155 -76q-76 0 -123 43t-47 124q0 202 319 180q0 70 -18.5 101t-70.5 31q-45 0 -63.5 -18.5t-17.5 -65.5z" />
    <glyph glyph-name="b" unicode="b" horiz-adv-x="566" 
d="M282 -3q-114 0 -170.5 55.5t-56.5 175.5v542h137v-227q42 52 129 52q94 0 142 -55t48 -153v-158q0 -121 -57.5 -176.5t-171.5 -55.5zM285 470q-93 0 -93 -98v-141q0 -57 20 -84.5t70 -27.5q92 0 92 113v139q0 52 -22.5 75t-66.5 24z" />
    <glyph glyph-name="c" unicode="c" horiz-adv-x="553" 
d="M508 370h-130q0 52 -21 76t-71 24q-54 0 -76 -28.5t-22 -86.5v-128q0 -58 20 -86.5t71 -28.5q53 0 75.5 24t23.5 77h130q0 -118 -55.5 -170.5t-173.5 -52.5q-117 0 -173 56t-56 177v132q0 237 233 237q117 0 171 -52t54 -170z" />
    <glyph glyph-name="d" unicode="d" horiz-adv-x="587" 
d="M510 0h-113l-10 65q-37 -68 -139 -68q-194 0 -194 228v152q0 105 50.5 162.5t147.5 57.5q90 0 121 -52v225h137v-770zM284 470q-93 0 -93 -99v-139q0 -113 89 -113q93 0 93 118v135q0 98 -89 98z" />
    <glyph glyph-name="e" unicode="e" 
d="M376 181h135q0 -93 -56.5 -138t-172.5 -45q-117 0 -173 55.5t-56 174.5v134q0 230 229 230q117 0 173 -55.5t56 -174.5v-117h-320v-15q0 -66 23 -89.5t70 -23.5q92 0 92 64zM286 473q-57 0 -76 -28t-19 -87h187q0 61 -18.5 88t-73.5 27z" />
    <glyph glyph-name="f" unicode="f" horiz-adv-x="363" 
d="M339 780v-121q-67 11 -105 -14.5t-38 -76.5v-31h127v-126h-127v-412h-137v571q0 106 74 166.5t206 43.5z" />
    <glyph glyph-name="g" unicode="g" horiz-adv-x="549" 
d="M246 -3q-94 0 -145 54.5t-51 166.5v147q0 228 192 228q97 0 134 -68l10 65h113v-605q0 -226 -223 -226q-213 0 -213 187h131q0 -70 82 -70q52 0 73.5 26.5t21.5 83.5v71q-39 -60 -125 -60zM272 118q50 0 71 30t21 90v115q0 118 -90 118q-43 0 -65 -26t-22 -87v-123
q0 -61 21 -89t64 -28z" />
    <glyph glyph-name="h" unicode="h" horiz-adv-x="558" 
d="M503 0h-137v371q0 53 -21 75.5t-65 23.5q-88 0 -88 -98v-372h-137v770h137v-227q42 52 124 52q94 0 140.5 -55t46.5 -153v-387z" />
    <glyph glyph-name="i" unicode="i" horiz-adv-x="280" 
d="M208 577v-578h-137v578h137zM63 709q0 48 38.5 67.5t77.5 0t39 -67.5q0 -35 -24 -55.5t-53.5 -20.5t-53.5 20t-24 56z" />
    <glyph glyph-name="j" unicode="j" horiz-adv-x="286" 
d="M218 582v-550q0 -129 -47.5 -174.5t-169.5 -45.5v117q47 0 63.5 17.5t16.5 82.5v553h137zM73 709q0 48 38.5 67.5t77.5 0t39 -67.5q0 -35 -24 -55.5t-53.5 -20.5t-53.5 20t-24 56z" />
    <glyph glyph-name="k" unicode="k" horiz-adv-x="554" 
d="M549 0h-154l-164 256h-39v-256h-137v772h137v-392h37l146 210h154l-189 -265z" />
    <glyph glyph-name="l" unicode="l" horiz-adv-x="306" 
d="M70 216v555h137v-553q0 -50 13.5 -68t55.5 -18v-132q-120 0 -163 45t-43 171z" />
    <glyph glyph-name="m" unicode="m" horiz-adv-x="923" 
d="M74 0v590h119l9 -60q51 66 139 63q107 0 145 -75q24 35 68.5 55.5t99.5 20.5q195 0 195 -231v-363h-137v363q0 107 -88 107q-43 0 -67.5 -23.5t-25.5 -82.5v-364h-137v363q0 107 -88 107q-95 0 -95 -102v-368h-137z" />
    <glyph glyph-name="n" unicode="n" horiz-adv-x="605" 
d="M79 0v590h119l7 -60q54 64 139 64q83 1 137.5 -52.5t54.5 -177.5v-364h-136v363q0 107 -89 107q-95 0 -95 -102v-368h-137z" />
    <glyph glyph-name="o" unicode="o" horiz-adv-x="558" 
d="M279 -10q-117 0 -173 55.5t-56 174.5v142q0 116 56.5 173t172.5 57q117 0 173 -55.5t56 -174.5v-142q0 -119 -56 -174.5t-173 -55.5zM279 112q51 0 71 28.5t20 86.5v128q0 58 -20 86.5t-71 28.5t-71 -28.5t-20 -86.5v-128q0 -58 20 -86.5t71 -28.5z" />
    <glyph glyph-name="p" unicode="p" horiz-adv-x="583" 
d="M66 590h113l10 -64q37 68 139 68q194 0 194 -228v-152q0 -105 -50.5 -162.5t-147.5 -57.5q-90 0 -121 52v-225h-137v769zM292 121q93 0 93 99v139q0 113 -89 113q-93 0 -93 -118v-135q0 -98 89 -98z" />
    <glyph glyph-name="q" unicode="q" horiz-adv-x="568" 
d="M282 595q114 0 170.5 -55.5t56.5 -175.5v-542h-137v227q-42 -52 -129 -52q-94 0 -142 55t-48 153v158q0 121 57.5 176.5t171.5 55.5zM279 122q93 0 93 98v141q0 57 -20 84.5t-70 27.5q-92 0 -92 -113v-139q0 -52 22.5 -75t66.5 -24z" />
    <glyph glyph-name="r" unicode="r" horiz-adv-x="385" 
d="M356 593v-145q-70 9 -114.5 -19t-44.5 -92v-338h-137v591h126l6 -62q19 33 65.5 53.5t98.5 11.5z" />
    <glyph glyph-name="s" unicode="s" horiz-adv-x="521" 
d="M483 405h-134q0 32 -22 48.5t-57 16.5q-85 0 -85 -62q0 -16 6 -27t14 -17t24.5 -9.5t28.5 -5t36 -3t38 -3.5q67 -8 112.5 -48t45.5 -113q0 -92 -63.5 -138.5t-164.5 -46.5q-105 0 -164.5 49.5t-59.5 135.5h139q2 -33 23 -49t68 -16q39 0 61 18t22 42q0 8 -2 15t-7 12
t-10 9t-14.5 7t-16.5 5t-19.5 4t-20.5 3t-23 2.5t-23 2.5q-169 22 -169 164q0 96 61 144t162 48q105 0 159.5 -52t54.5 -136z" />
    <glyph glyph-name="t" unicode="t" horiz-adv-x="334" 
d="M64 216v476l137 15v-115h100v-125h-100v-249q0 -57 19.5 -81.5t82.5 -16.5v-120q-130 -14 -184.5 35.5t-54.5 180.5z" />
    <glyph glyph-name="u" unicode="u" horiz-adv-x="596" 
d="M526 591v-590h-122l-7 60q-54 -64 -139 -64q-83 -1 -137.5 52.5t-54.5 177.5v364h136v-363q0 -107 89 -107q95 0 95 102v368h140z" />
    <glyph glyph-name="v" unicode="v" horiz-adv-x="488" 
d="M343 590h143l-181 -591h-121l-181 591h143l53 -177q28 -111 46 -248q22 149 46 248z" />
    <glyph glyph-name="w" unicode="w" horiz-adv-x="774" 
d="M338 590h102l45 -189q26 -111 44 -236q21 154 44 248l51 177h141l-171 -591h-131l-35 129l-41 208l-41 -210l-35 -127h-130l-173 591h142l52 -177q21 -85 43 -248q2 10 6.5 52.5t12 86t20.5 99.5q7 29 27 96.5t27 90.5z" />
    <glyph glyph-name="x" unicode="x" horiz-adv-x="527" 
d="M152 0h-143l178 300l-171 290h144l54 -91q33 -55 50 -103q16 45 52 106l52 88h142l-171 -289l180 -301h-146l-52 88q-30 46 -58 116q-21 -53 -60 -118z" />
    <glyph glyph-name="y" unicode="y" horiz-adv-x="510" 
d="M355 590h143l-175 -583h1l-32 -114q-19 -65 -51.5 -95.5t-77 -29.5t-101.5 23l21 101q2 -1 12.5 -3.5t14 -3t12 -1.5t12.5 0t10.5 3t10 6.5t7.5 11t7 16.5l23 83l-177 586h143l53 -177q28 -111 46 -248q22 149 46 248z" />
    <glyph glyph-name="z" unicode="z" horiz-adv-x="510" 
d="M31 0v16l255 453h-229v120h433v-17l-254 -444h254v-128h-459z" />
    <glyph glyph-name="braceleft" unicode="{" horiz-adv-x="320" 
d="M89 242q0 70 -69 70v106q69 0 69 70v166q-7 102 56 142t158 15v-104q-5 1 -17.5 2.5t-17.5 2t-14.5 1t-14 -1.5t-10.5 -6.5t-9 -11t-5 -17.5t-2 -25v-163v-13.5v-14.5t-0.5 -13t-1 -14t-1.5 -12t-3 -13t-4.5 -11t-6 -11.5t-8 -10t-9.5 -9.5q17 -13 25 -33.5t9 -36
t1 -44.5v-9v-199q0 -35 12.5 -49t32.5 -11.5t45 4.5v-104q-97 -25 -156 11t-59 146v201z" />
    <glyph glyph-name="bar" unicode="|" horiz-adv-x="275" 
d="M68 -188v960h139v-960h-139z" />
    <glyph glyph-name="braceright" unicode="}" horiz-adv-x="337" 
d="M242 242v-201q0 -110 -59 -146t-156 -11v104q25 -2 45 -4.5t32.5 11.5t12.5 49v199v9q0 29 1 44.5t9 36t25 33.5q-17 14 -25 37.5t-8.5 36t-0.5 48.5v163q0 16 -2 28t-8 18.5t-9.5 10.5t-15 4h-16t-20 -2.5t-19.5 -2.5v104q95 25 158 -15t56 -142v-166q0 -70 69 -70v-106
q-69 0 -69 -70z" />
    <glyph glyph-name="asciitilde" unicode="~" horiz-adv-x="646" 
d="M470 386l100 -39q-23 -65 -61.5 -101.5t-86.5 -36.5q-36 0 -72 16l-118 59q-12 5 -29 5q-29 0 -55 -68l-95 40q21 63 63 101.5t92 38.5q34 0 66 -16h-1l117 -57q13 -7 27 -7q25 0 53 65z" />
    <glyph glyph-name="exclamdown" unicode="&#xa1;" horiz-adv-x="251" 
d="M52 -189l10 574h126v-574h-136zM204 509q0 -36 -24 -56.5t-53.5 -20.5t-53.5 20.5t-24 56.5q0 35 24 55.5t53.5 20.5t53.5 -20t24 -56z" />
    <glyph glyph-name="cent" unicode="&#xa2;" horiz-adv-x="538" 
d="M503 362h-133q0 108 -92 108q-54 0 -74.5 -28t-20.5 -87v-128q0 -58 20 -86.5t71 -28.5q52 0 73.5 27.5t22.5 80.5h133q0 -191 -157 -223v-79h-140v78q-161 30 -161 224v142q0 191 162 223v86h140v-86q156 -33 156 -223z" />
    <glyph glyph-name="sterling" unicode="&#xa3;" horiz-adv-x="541" 
d="M506 552h-124q0 82 -72 82q-31 0 -51 -21t-20 -60v-115h175v-125h-175v-189h269v-124h-491v125h88v188h-88v125h88v112q0 100 53 156.5t152 56.5q200 0 196 -211z" />
    <glyph glyph-name="currency" unicode="&#xa4;" horiz-adv-x="540" 
d="M261 219q40 0 62.5 27t22.5 70q0 44 -22.5 71t-62.5 27q-39 0 -61.5 -29.5t-22.5 -68.5t22.5 -68t61.5 -29zM179 118l-57 -61l-94 103l51 57q-19 47 -19 97q0 52 21 100q-10 11 -30.5 33t-21.5 23l93 106l56 -62q41 19 84 19q41 0 84 -19q4 4 26 28.5t30 33.5l94 -107
l-51 -54q20 -41 20 -99q0 -52 -21 -99l52 -56l-95 -104l-55 61q-41 -18 -85 -18q-43 0 -82 18z" />
    <glyph glyph-name="yen" unicode="&#xa5;" horiz-adv-x="513" 
d="M370 770h149l-152 -350h66v-110h-108v-41h108v-110h-108v-160h-137v160h-109v110h109v41h-109v110h66l-153 350h149l60 -142l56 -165l56 169z" />
    <glyph glyph-name="brokenbar" unicode="&#xa6;" horiz-adv-x="206" 
d="M39 408v363h133v-363h-133zM172 337v-388h-133v388h133z" />
    <glyph glyph-name="section" unicode="&#xa7;" horiz-adv-x="522" 
d="M489 51q0 -98 -63 -145t-165 -47q-105 0 -166.5 54.5t-61.5 149.5h139q0 -81 100 -81q39 0 58.5 16.5t19.5 40.5q0 43 -33 60t-115 20q-72 3 -120.5 40.5t-48.5 115.5q0 35 20 67.5t50 50.5q-27 12 -48.5 40.5t-21.5 64.5q0 96 63 148.5t162 52.5q105 0 165.5 -52
t60.5 -141h-139q0 39 -19.5 55t-65.5 16q-40 0 -64 -15.5t-24 -46.5q0 -18 7.5 -30.5t17.5 -19.5t32.5 -11t38.5 -5.5t50 -3.5q74 -3 122.5 -39t48.5 -115q0 -76 -86 -117q86 -46 86 -123zM174 282q0 -23 18 -38.5t44 -19.5t52 -1t44 18t18 38q0 21 -18 36t-44 19t-52 1
t-44 -17t-18 -36z" />
    <glyph glyph-name="dieresis" unicode="&#xa8;" horiz-adv-x="445" 
d="M46 722q0 43 36.5 61.5t73.5 1t37 -62.5q0 -31 -23 -49.5t-50.5 -19.5t-50.5 17.5t-23 51.5zM267 722q0 43 36.5 61.5t73.5 1t37 -62.5q0 -31 -23 -49.5t-50.5 -19.5t-50.5 17.5t-23 51.5z" />
    <glyph glyph-name="copyright" unicode="&#xa9;" horiz-adv-x="842" 
d="M429 734l-16 -1q168 1 262.5 -102t94.5 -252q0 -158 -92.5 -263t-264.5 -105q-173 0 -267 101t-94 260q0 70 24 134t69.5 116t119 82.5t164.5 29.5zM413 644q-128 0 -196 -75.5t-68 -198.5q0 -120 68 -196t196 -76t194 76.5t66 203.5q0 119 -68 192.5t-192 73.5zM475 325
h95q-1 -91 -37.5 -129t-120.5 -38q-85 0 -124 38.5t-39 124.5v109q0 157 163 157q153 0 159 -160l-96 -1q-1 42 -16 56.5t-47 14.5q-34 0 -49.5 -13.5t-15.5 -53.5v-109q0 -42 15.5 -57.5t49.5 -15.5t48.5 15t14.5 62z" />
    <glyph glyph-name="ordfeminine" unicode="&#xaa;" horiz-adv-x="449" 
d="M50 300h345v-102h-345v102zM396 593v-238h-91l-5 32q-35 -33 -94 -33q-171 0 -171 167v72q0 90 49 131.5t133 41.5q179 0 179 -173zM292 593q0 44 -19.5 60.5t-55.5 16.5q-77 0 -77 -77v-64q0 -42 16.5 -59t49.5 -17q43 0 64.5 21t21.5 78v41z" />
    <glyph glyph-name="guillemotleft" unicode="&#xab;" horiz-adv-x="516" 
d="M21 332l141 225h137l-140 -226l140 -225h-137zM210 332l141 225h137l-140 -226l140 -225h-137z" />
    <glyph glyph-name="logicalnot" unicode="&#xac;" horiz-adv-x="501" 
d="M446 174h-119v111h-270v116h389v-227z" />
    <glyph glyph-name="uni00AD" unicode="&#xad;" horiz-adv-x="552" 
d="M484 397v-115h-411v115h411z" />
    <glyph glyph-name="registered" unicode="&#xae;" horiz-adv-x="838" 
d="M411 723q172 0 270 -106.5t98 -265.5q0 -158 -98.5 -265t-269.5 -107q-170 0 -269 107t-99 265q0 159 99 265.5t269 106.5zM411 635q-124 0 -194 -79.5t-71 -202.5q0 -123 70.5 -203t194.5 -80t195 80t71 202q0 123 -71 203t-195 80zM578 151h-111l-60 121h-34v-122h-95
v414h140q71 0 111 -30t40 -108v-8q0 -104 -72 -128zM418 474h-45v-114h45q28 0 40.5 12t12.5 46v8q0 21 -6.5 31.5t-16 13t-30.5 3.5z" />
    <glyph glyph-name="macron" unicode="&#xaf;" horiz-adv-x="385" 
d="M67 775h254v-116h-254v116z" />
    <glyph glyph-name="degree" unicode="&#xb0;" horiz-adv-x="326" 
d="M156 705q-26 0 -41 -17t-15.5 -37.5t14.5 -37.5t42 -17q34 0 48 27t0 54.5t-48 27.5zM157 784q37 0 67 -14.5t45 -38t22.5 -52t0.5 -57t-22 -52t-44.5 -38t-67.5 -14.5q-55 0 -91.5 27.5t-44.5 66.5t1 78t45.5 66.5t88.5 27.5z" />
    <glyph glyph-name="plusminus" unicode="&#xb1;" horiz-adv-x="497" 
d="M51 116h401v-120h-401v120zM460 436v-114h-144v-148h-123v148h-144v114h144v149h123v-149h144z" />
    <glyph glyph-name="twosuperior" unicode="&#xb2;" horiz-adv-x="317" 
d="M26 346v96q0 58 30.5 91t78.5 57t48 58q0 32 -30 32q-33 0 -29 -48h-94q-9 139 125 139q58 0 92 -31t34 -90q0 -95 -106 -142q-4 -2 -14 -6.5t-14 -7t-10 -9t-8 -17t-2 -25.5h145v-97h-246z" />
    <glyph glyph-name="threesuperior" unicode="&#xb3;" horiz-adv-x="312" 
d="M12 479h98q1 -27 10.5 -36.5t26.5 -9.5q36 0 36 43q0 41 -36 41h-34v92h33q30 0 30 38q0 30 -29 30q-30 0 -30 -36h-97q0 127 130 129q57 0 92 -30.5t35 -92.5q0 -21 -11.5 -45t-32.5 -35q53 -27 53 -91t-37 -101t-103 -37q-70 0 -102 33t-32 108z" />
    <glyph glyph-name="acute" unicode="&#xb4;" horiz-adv-x="245" 
d="M229 761l-76 -136h-119l57 136h138z" />
    <glyph glyph-name="_181" unicode="&#xb5;" horiz-adv-x="524" 
d="M36 -203v784h141v-363q0 -103 87 -103q41 0 61 26t20 88v351h140v-580h-116l-11 40q-27 -50 -91 -52.5t-95 44.5v-235h-136z" />
    <glyph glyph-name="paragraph" unicode="&#xb6;" horiz-adv-x="692" 
d="M341 638v-830h-141v431q-182 25 -180 268q0 53 11.5 97.5t36 83.5t71 61.5t110.5 22.5h415v-134h-80v-830h-139v830h-104z" />
    <glyph glyph-name="periodcentered" unicode="&#xb7;" horiz-adv-x="213" 
d="M22 328q0 38 26.5 60t58.5 22.5t58.5 -21t26.5 -61.5q0 -37 -26.5 -59.5t-58.5 -23t-58.5 21t-26.5 61.5z" />
    <glyph glyph-name="cedilla" unicode="&#xb8;" horiz-adv-x="294" 
d="M54 -51l33 108h104l-19 -58q59 -4 80.5 -41t9.5 -87q-10 -42 -44 -69.5t-74.5 -33.5t-83.5 7.5t-71 45.5l45 70q13 -13 36.5 -21t47.5 -3t31 27q5 23 -23 38t-72 17z" />
    <glyph glyph-name="onesuperior" unicode="&#xb9;" horiz-adv-x="265" 
d="M22 351v85h64v252h-52v84h146v-336h60v-85h-218z" />
    <glyph glyph-name="ordmasculine" unicode="&#xba;" horiz-adv-x="437" 
d="M213 419q-76 0 -127 47t-51 128t50.5 127.5t126.5 46.5q77 0 127 -46.5t50 -126.5q0 -81 -50.5 -128.5t-125.5 -47.5zM213 512q35 0 56.5 22.5t21.5 59.5t-23 61t-56 24q-32 0 -54 -24t-22 -60q0 -37 21 -60t56 -23zM53 376h321v-99h-321v99z" />
    <glyph glyph-name="guillemotright" unicode="&#xbb;" horiz-adv-x="516" 
d="M352 557l141 -225l-141 -226h-137l140 225l-140 226h137zM163 557l141 -225l-141 -226h-137l140 225l-140 226h137z" />
    <glyph glyph-name="onequarter" unicode="&#xbc;" horiz-adv-x="757" 
d="M135 -2l365 768h109l-367 -768h-107zM574 79h-160l-11 66l165 268h102v-242h45v-92h-45v-79h-96v79zM578 171v65l5 56l-66 -121h61zM44 344v86h61v250h-46v85h140v-335h57v-86h-212z" />
    <glyph glyph-name="onehalf" unicode="&#xbd;" horiz-adv-x="786" 
d="M135 -2l365 768h109l-367 -768h-107zM44 344v86h61v250h-46v85h140v-335h57v-86h-212zM485 2v96q0 58 30.5 91t78.5 57t48 58q0 32 -30 32q-33 0 -29 -48h-94q-9 139 125 139q58 0 92 -31t34 -90q0 -95 -106 -142q-1 -1 -13.5 -6.5t-15 -8t-9 -10t-8.5 -18t-2 -25.5h151
v-94h-252z" />
    <glyph glyph-name="threequarters" unicode="&#xbe;" horiz-adv-x="805" 
d="M178 -2l365 768h109l-367 -768h-107zM617 79h-160l-11 66l165 268h102v-242h45v-92h-45v-79h-96v79zM621 171v65l5 56l-66 -121h61zM47 479h98q1 -27 10.5 -36.5t26.5 -9.5q36 0 36 43q0 41 -36 41h-34v92h33q30 0 30 38q0 30 -29 30q-30 0 -30 -36h-97q0 127 130 129
q57 0 92 -30.5t35 -92.5q0 -21 -11.5 -45t-32.5 -35q53 -27 53 -91t-37 -101t-103 -37q-70 0 -102 33t-32 108z" />
    <glyph glyph-name="questiondown" unicode="&#xbf;" horiz-adv-x="511" 
d="M346 14h137q0 -215 -225 -219q-102 0 -165.5 54.5t-63.5 169.5v60q0 60 18 100.5t43 61.5t50.5 38.5t43.5 44t18 65.5h138q0 -54 -18 -94t-44 -63.5t-51.5 -43t-43.5 -45.5t-18 -60v-63q0 -99 91 -99q90 0 90 93zM348 515q0 -36 -24 -56.5t-53.5 -20.5t-53.5 20.5
t-24 56.5q0 35 24 55.5t53.5 20.5t53.5 -20t24 -56z" />
    <glyph glyph-name="Agrave" unicode="&#xc0;" horiz-adv-x="578" 
d="M359 769l210 -769h-142l-39 136h-197l-40 -136h-142l213 769h137zM225 271h128l-64 285zM226 812l-76 136h138l57 -136h-119z" />
    <glyph glyph-name="Aacute" unicode="&#xc1;" horiz-adv-x="578" 
d="M359 769l210 -769h-142l-39 136h-197l-40 -136h-142l213 769h137zM225 271h128l-64 285zM418 949l-76 -136h-119l57 136h138z" />
    <glyph glyph-name="Acircumflex" unicode="&#xc2;" horiz-adv-x="578" 
d="M359 769l210 -769h-142l-39 136h-197l-40 -136h-142l213 769h137zM225 271h128l-64 285zM285 863l-47 -45h-127v10l142 129h64l141 -129v-10h-128z" />
    <glyph glyph-name="Atilde" unicode="&#xc3;" horiz-adv-x="578" 
d="M359 769l210 -769h-142l-39 136h-197l-40 -136h-142l213 769h137zM225 271h128l-64 285zM210 821l-81 42q16 52 59 78.5t92 4.5l49 -24q30 -14 46 26l84 -35q-14 -56 -52.5 -86.5t-92.5 -8.5l-54 26q-7 8 -24 3t-26 -26z" />
    <glyph glyph-name="Adieresis" unicode="&#xc4;" horiz-adv-x="578" 
d="M359 769l210 -769h-142l-39 136h-197l-40 -136h-142l213 769h137zM225 271h128l-64 285zM99 880q0 43 36.5 61.5t73.5 1t37 -62.5q0 -31 -23 -49.5t-50.5 -19.5t-50.5 17.5t-23 51.5zM320 880q0 43 36.5 61.5t73.5 1t37 -62.5q0 -31 -23 -49.5t-50.5 -19.5t-50.5 17.5
t-23 51.5z" />
    <glyph glyph-name="Aring" unicode="&#xc5;" horiz-adv-x="578" 
d="M168 830q0 55 35.5 86.5t85.5 31.5q52 0 87 -31t35 -86q0 -61 -44 -94l202 -737h-142l-39 136h-197l-40 -136h-142l203 735q-45 34 -44 95zM225 271h128l-64 285zM289 873q-27 0 -38 -21.5t0 -43t38 -21.5q29 0 40 21.5t-1 43t-39 21.5z" />
    <glyph glyph-name="AE" unicode="&#xc6;" horiz-adv-x="753" 
d="M267 772h437v-120h-219v-199h198v-124h-198v-203h233v-126h-368v145h-147l-49 -145h-151zM237 271h113v365z" />
    <glyph glyph-name="Ccedilla" unicode="&#xc7;" horiz-adv-x="623" 
d="M441 238h138q0 -113 -50 -170.5t-159 -67.5l-13 -38q59 -3 80.5 -37t9.5 -80q-13 -52 -64.5 -77.5t-111.5 -16.5t-97 48l45 64q13 -12 36.5 -19t47.5 -2.5t31 24.5q5 21 -23 35t-72 15l28 84q-109 9 -158.5 64t-49.5 164v313q0 123 59 176.5t198 53.5q140 0 201.5 -55.5
t61.5 -183.5h-138q0 62 -25 89.5t-100 27.5q-71 0 -95 -27.5t-24 -87.5v-299q0 -60 24 -87.5t95 -27.5t98 28.5t27 89.5z" />
    <glyph glyph-name="Egrave" unicode="&#xc8;" 
d="M70 770h443v-120h-305v-198h260v-124h-260v-203h319v-126h-457v771zM228 818l-76 136h138l57 -136h-119z" />
    <glyph glyph-name="Eacute" unicode="&#xc9;" 
d="M70 770h443v-120h-305v-198h260v-124h-260v-203h319v-126h-457v771zM407 955l-76 -136h-119l57 136h138z" />
    <glyph glyph-name="Ecircumflex" unicode="&#xca;" 
d="M70 770h443v-120h-305v-198h260v-124h-260v-203h319v-126h-457v771zM274 864l-47 -45h-127v10l142 129h64l141 -129v-10h-128z" />
    <glyph glyph-name="Edieresis" unicode="&#xcb;" 
d="M70 770h443v-120h-305v-198h260v-124h-260v-203h319v-126h-457v771zM105 885q0 42 35.5 59.5t71.5 0.5t36 -60q0 -40 -36 -57.5t-71.5 -1t-35.5 58.5zM319 885q0 42 35.5 59.5t71 0.5t35.5 -60q0 -30 -22 -47.5t-49 -18.5t-49 16.5t-22 49.5z" />
    <glyph glyph-name="Igrave" unicode="&#xcc;" horiz-adv-x="279" 
d="M209 769v-770h-139v770h139zM88 816l-76 136h138l57 -136h-119z" />
    <glyph glyph-name="Iacute" unicode="&#xcd;" horiz-adv-x="279" 
d="M209 769v-770h-139v770h139zM268 952l-76 -136h-119l57 136h138z" />
    <glyph glyph-name="Icircumflex" unicode="&#xce;" horiz-adv-x="279" 
d="M209 769v-770h-139v770h139zM140 863l-47 -45h-127v10l142 129h64l141 -129v-10h-128z" />
    <glyph glyph-name="Idieresis" unicode="&#xcf;" horiz-adv-x="279" 
d="M209 769v-770h-139v770h139zM-40 883q0 43 36.5 61.5t73.5 1t37 -62.5q0 -31 -23 -49.5t-50.5 -19.5t-50.5 17.5t-23 51.5zM181 883q0 43 36.5 61.5t73.5 1t37 -62.5q0 -31 -23 -49.5t-50.5 -19.5t-50.5 17.5t-23 51.5z" />
    <glyph glyph-name="Eth" unicode="&#xd0;" horiz-adv-x="640" 
d="M71 770h253q140 0 201.5 -54t61.5 -176v-314q0 -119 -62.5 -172.5t-200.5 -53.5h-253v307h-64v115h64v348zM208 125h116q72 0 98.5 25t26.5 83v300q0 60 -24 85.5t-99 25.5h-118v-222h105v-115h-105v-182z" />
    <glyph glyph-name="Ntilde" unicode="&#xd1;" horiz-adv-x="623" 
d="M554 769v-769h-134l-226 488l12 -292v-196h-137v769h137l226 -507l-15 325v182h137zM221 822l-81 42q16 52 59 78.5t92 4.5l49 -24q30 -14 46 26l84 -35q-14 -56 -52.5 -86.5t-92.5 -8.5l-54 26q-7 8 -24 3t-26 -26z" />
    <glyph glyph-name="Ograve" unicode="&#xd2;" horiz-adv-x="641" 
d="M316 -7q-136 0 -196.5 55t-60.5 175v326q0 123 59 176.5t198 53.5q140 0 201.5 -54t61.5 -176v-326q0 -119 -63 -174.5t-200 -55.5zM316 115q71 0 98 28t27 87v312q0 59 -25 87t-100 28q-70 0 -94.5 -28.5t-24.5 -86.5v-312q0 -60 24 -87.5t95 -27.5zM270 827l-76 136
h138l57 -136h-119z" />
    <glyph glyph-name="Oacute" unicode="&#xd3;" horiz-adv-x="641" 
d="M316 -7q-136 0 -196.5 55t-60.5 175v326q0 123 59 176.5t198 53.5q140 0 201.5 -54t61.5 -176v-326q0 -119 -63 -174.5t-200 -55.5zM316 115q71 0 98 28t27 87v312q0 59 -25 87t-100 28q-70 0 -94.5 -28.5t-24.5 -86.5v-312q0 -60 24 -87.5t95 -27.5zM454 961l-76 -136
h-119l57 136h138z" />
    <glyph glyph-name="Ocircumflex" unicode="&#xd4;" horiz-adv-x="641" 
d="M316 -7q-136 0 -196.5 55t-60.5 175v326q0 123 59 176.5t198 53.5q140 0 201.5 -54t61.5 -176v-326q0 -119 -63 -174.5t-200 -55.5zM316 115q71 0 98 28t27 87v312q0 59 -25 87t-100 28q-70 0 -94.5 -28.5t-24.5 -86.5v-312q0 -60 24 -87.5t95 -27.5zM325 870l-47 -45
h-127v10l142 129h64l141 -129v-10h-128z" />
    <glyph glyph-name="Otilde" unicode="&#xd5;" horiz-adv-x="641" 
d="M316 -7q-136 0 -196.5 55t-60.5 175v326q0 123 59 176.5t198 53.5q140 0 201.5 -54t61.5 -176v-326q0 -119 -63 -174.5t-200 -55.5zM316 115q71 0 98 28t27 87v312q0 59 -25 87t-100 28q-70 0 -94.5 -28.5t-24.5 -86.5v-312q0 -60 24 -87.5t95 -27.5zM236 830l-81 42
q16 52 59 78.5t92 4.5l49 -24q30 -14 46 26l84 -35q-14 -56 -52.5 -86.5t-92.5 -8.5l-54 26q-7 8 -24 3t-26 -26z" />
    <glyph glyph-name="Odieresis" unicode="&#xd6;" horiz-adv-x="641" 
d="M316 -7q-136 0 -196.5 55t-60.5 175v326q0 123 59 176.5t198 53.5q140 0 201.5 -54t61.5 -176v-326q0 -119 -63 -174.5t-200 -55.5zM316 115q71 0 98 28t27 87v312q0 59 -25 87t-100 28q-70 0 -94.5 -28.5t-24.5 -86.5v-312q0 -60 24 -87.5t95 -27.5zM138 888
q0 43 36.5 61.5t73.5 1t37 -62.5q0 -31 -23 -49.5t-50.5 -19.5t-50.5 17.5t-23 51.5zM359 888q0 43 36.5 61.5t73.5 1t37 -62.5q0 -31 -23 -49.5t-50.5 -19.5t-50.5 17.5t-23 51.5z" />
    <glyph glyph-name="multiply" unicode="&#xd7;" horiz-adv-x="454" 
d="M125 504l102 -103l102 101l80 -79l-105 -104l109 -107l-87 -82l-104 105l-101 -102l-83 78l104 105l-106 104z" />
    <glyph glyph-name="Oslash" unicode="&#xd8;" horiz-adv-x="641" 
d="M316 -7q-46 0 -83 6l-22 -61h-114l36 99q-74 54 -74 186v326q0 123 59 176.5t198 53.5q46 0 85 -6l25 69h115l-39 -106q77 -52 77 -187v-326q0 -119 -63 -174.5t-200 -55.5zM316 115q71 0 98 28t27 87v312q0 4 -0.5 12t-0.5 11l-163 -447q17 -3 39 -3zM197 230v-17
l160 441q-18 3 -41 3q-70 0 -94.5 -28.5t-24.5 -86.5v-312z" />
    <glyph glyph-name="Ugrave" unicode="&#xd9;" horiz-adv-x="637" 
d="M433 235v534h138v-541q0 -117 -67.5 -176t-191.5 -59q-252 0 -252 235v541h138v-534q0 -120 114 -120q60 0 90.5 32t30.5 88zM260 817l-76 136h138l57 -136h-119z" />
    <glyph glyph-name="Uacute" unicode="&#xda;" horiz-adv-x="637" 
d="M433 235v534h138v-541q0 -117 -67.5 -176t-191.5 -59q-252 0 -252 235v541h138v-534q0 -120 114 -120q60 0 90.5 32t30.5 88zM447 958l-76 -136h-119l57 136h138z" />
    <glyph glyph-name="Ucircumflex" unicode="&#xdb;" horiz-adv-x="637" 
d="M433 235v534h138v-541q0 -117 -67.5 -176t-191.5 -59q-252 0 -252 235v541h138v-534q0 -120 114 -120q60 0 90.5 32t30.5 88zM320 869l-47 -45h-127v10l142 129h64l141 -129v-10h-128z" />
    <glyph glyph-name="Udieresis" unicode="&#xdc;" horiz-adv-x="637" 
d="M433 235v534h138v-541q0 -117 -67.5 -176t-191.5 -59q-252 0 -252 235v541h138v-534q0 -120 114 -120q60 0 90.5 32t30.5 88zM131 893q0 43 36.5 61.5t73.5 1t37 -62.5q0 -31 -23 -49.5t-50.5 -19.5t-50.5 17.5t-23 51.5zM352 893q0 43 36.5 61.5t73.5 1t37 -62.5
q0 -31 -23 -49.5t-50.5 -19.5t-50.5 17.5t-23 51.5z" />
    <glyph glyph-name="Yacute" unicode="&#xdd;" horiz-adv-x="526" 
d="M376 770h149l-194 -448v-323h-137v323l-196 448h149l60 -142l56 -165l56 169zM386 954l-76 -136h-119l57 136h138z" />
    <glyph glyph-name="Thorn" unicode="&#xde;" horiz-adv-x="579" 
d="M70 772h140v-122h54q141 0 207 -54.5t66 -175.5v-71q0 -119 -67.5 -176t-205.5 -57h-53v-116h-141v772zM210 249h54q73 0 103 25.5t30 81.5v57q0 58 -27.5 84.5t-103.5 26.5h-56v-275z" />
    <glyph glyph-name="germandbls" unicode="&#xdf;" horiz-adv-x="537" 
d="M192 574v-574h-141v574q0 207 210 207q206 0 206 -207q0 -103 -62 -147q56 -26 87.5 -77.5t31.5 -117.5q0 -125 -59.5 -178.5t-197.5 -53.5h-31v120h33q65 0 88.5 27.5t23.5 83.5t-24.5 81.5t-77.5 25.5h-37v127h1q47 0 66.5 34t19.5 75q0 86 -70 86q-67 0 -67 -86z" />
    <glyph glyph-name="agrave" unicode="&#xe0;" horiz-adv-x="543" 
d="M355 235q-189 19 -189 -65q0 -52 81 -52q96 0 108 117zM185 387h-131q-7 107 47.5 156.5t163.5 49.5q114 0 167.5 -57t53.5 -173v-363h-112l-13 68q-55 -76 -155 -76q-76 0 -123 43t-47 124q0 202 319 180q0 70 -18.5 101t-70.5 31q-45 0 -63.5 -18.5t-17.5 -65.5z
M218 644l-76 136h138l57 -136h-119z" />
    <glyph glyph-name="aacute" unicode="&#xe1;" horiz-adv-x="543" 
d="M355 235q-189 19 -189 -65q0 -52 81 -52q96 0 108 117zM185 387h-131q-7 107 47.5 156.5t163.5 49.5q114 0 167.5 -57t53.5 -173v-363h-112l-13 68q-55 -76 -155 -76q-76 0 -123 43t-47 124q0 202 319 180q0 70 -18.5 101t-70.5 31q-45 0 -63.5 -18.5t-17.5 -65.5z
M391 778l-76 -136h-119l57 136h138z" />
    <glyph glyph-name="acircumflex" unicode="&#xe2;" horiz-adv-x="543" 
d="M355 235q-189 19 -189 -65q0 -52 81 -52q96 0 108 117zM185 387h-131q-7 107 47.5 156.5t163.5 49.5q114 0 167.5 -57t53.5 -173v-363h-112l-13 68q-55 -76 -155 -76q-76 0 -123 43t-47 124q0 202 319 180q0 70 -18.5 101t-70.5 31q-45 0 -63.5 -18.5t-17.5 -65.5z
M272 691l-47 -45h-127v10l142 129h64l141 -129v-10h-128z" />
    <glyph glyph-name="atilde" unicode="&#xe3;" horiz-adv-x="543" 
d="M355 235q-189 19 -189 -65q0 -52 81 -52q96 0 108 117zM185 387h-131q-7 107 47.5 156.5t163.5 49.5q114 0 167.5 -57t53.5 -173v-363h-112l-13 68q-55 -76 -155 -76q-76 0 -123 43t-47 124q0 202 319 180q0 70 -18.5 101t-70.5 31q-45 0 -63.5 -18.5t-17.5 -65.5z
M185 654l-79 42q16 50 58 76t89 5l48 -24q30 -12 45 26l82 -34q-14 -55 -51.5 -85t-89.5 -8l-53 25q-7 8 -23.5 3t-25.5 -26z" />
    <glyph glyph-name="adieresis" unicode="&#xe4;" horiz-adv-x="543" 
d="M355 235q-189 19 -189 -65q0 -52 81 -52q96 0 108 117zM185 387h-131q-7 107 47.5 156.5t163.5 49.5q114 0 167.5 -57t53.5 -173v-363h-112l-13 68q-55 -76 -155 -76q-76 0 -123 43t-47 124q0 202 319 180q0 70 -18.5 101t-70.5 31q-45 0 -63.5 -18.5t-17.5 -65.5z
M93 718q0 31 22 49.5t49 19t49 -17.5t22 -51q0 -30 -22 -47.5t-49 -18.5t-49 16.5t-22 49.5zM306 718q0 31 22 49.5t48.5 19t48.5 -17.5t22 -51q0 -40 -35.5 -57.5t-70.5 -1t-35 58.5z" />
    <glyph glyph-name="aring" unicode="&#xe5;" horiz-adv-x="543" 
d="M355 235q-189 19 -189 -65q0 -52 81 -52q96 0 108 117zM185 387h-131q-7 107 47.5 156.5t163.5 49.5q114 0 167.5 -57t53.5 -173v-363h-112l-13 68q-55 -76 -155 -76q-76 0 -123 43t-47 124q0 202 319 180q0 70 -18.5 101t-70.5 31q-45 0 -63.5 -18.5t-17.5 -65.5z
M156 722q0 47 35 73.5t84 26.5q50 0 84.5 -26t34.5 -73q0 -46 -35 -73t-85 -27q-51 0 -85 26.5t-33 72.5zM275 759q-26 0 -37 -18.5t0 -36.5t37 -18q28 0 39 18t-0.5 36.5t-38.5 18.5z" />
    <glyph glyph-name="ae" unicode="&#xe6;" horiz-adv-x="849" 
d="M664 181h135q0 -189 -228 -189q-124 0 -166 91q-40 -57 -84 -74t-115 -17q-76 0 -123 43t-47 124q0 202 319 180v5q-1 67 -20 97t-69 30q-45 0 -62.5 -17.5t-16.5 -64.5h-131q-7 107 46.5 155.5t162.5 48.5t157 -81q48 80 155 80q222 0 222 -230v-117h-320v-15
q0 -67 24 -92t70 -25q91 0 91 68zM581 473q-57 0 -79.5 -29t-22.5 -86h192q0 52 -18.5 83.5t-71.5 31.5zM355 235q-189 19 -189 -65q0 -52 81 -52q96 0 108 117z" />
    <glyph glyph-name="ccedilla" unicode="&#xe7;" horiz-adv-x="553" 
d="M207 -87l25 80q-93 10 -137.5 66t-44.5 164v132q0 237 233 237q117 0 171 -52t54 -170h-130q0 52 -21 76t-71 24q-54 0 -76 -28.5t-22 -86.5v-128q0 -58 20 -86.5t71 -28.5q53 0 75.5 24t23.5 77h130q0 -103 -43 -156t-132 -64l-11 -35q58 -3 78.5 -37.5t9.5 -80.5
q-13 -51 -63.5 -75t-109 -14.5t-94.5 48.5l44 63q13 -12 36 -20t46 -4.5t30 23.5q5 21 -22.5 35.5t-69.5 16.5z" />
    <glyph glyph-name="egrave" unicode="&#xe8;" 
d="M376 181h135q0 -93 -56.5 -138t-172.5 -45q-117 0 -173 55.5t-56 174.5v134q0 230 229 230q117 0 173 -55.5t56 -174.5v-117h-320v-15q0 -66 23 -89.5t70 -23.5q92 0 92 64zM286 473q-57 0 -76 -28t-19 -87h187q0 61 -18.5 88t-73.5 27zM243 638l-76 136h138l57 -136
h-119z" />
    <glyph glyph-name="eacute" unicode="&#xe9;" 
d="M376 181h135q0 -93 -56.5 -138t-172.5 -45q-117 0 -173 55.5t-56 174.5v134q0 230 229 230q117 0 173 -55.5t56 -174.5v-117h-320v-15q0 -66 23 -89.5t70 -23.5q92 0 92 64zM286 473q-57 0 -76 -28t-19 -87h187q0 61 -18.5 88t-73.5 27zM411 775l-76 -136h-119l57 136
h138z" />
    <glyph glyph-name="ecircumflex" unicode="&#xea;" 
d="M376 181h135q0 -93 -56.5 -138t-172.5 -45q-117 0 -173 55.5t-56 174.5v134q0 230 229 230q117 0 173 -55.5t56 -174.5v-117h-320v-15q0 -66 23 -89.5t70 -23.5q92 0 92 64zM286 473q-57 0 -76 -28t-19 -87h187q0 61 -18.5 88t-73.5 27zM287 685l-47 -45h-127v10l142 129
h64l141 -129v-10h-128z" />
    <glyph glyph-name="edieresis" unicode="&#xeb;" 
d="M376 181h135q0 -93 -56.5 -138t-172.5 -45q-117 0 -173 55.5t-56 174.5v134q0 230 229 230q117 0 173 -55.5t56 -174.5v-117h-320v-15q0 -66 23 -89.5t70 -23.5q92 0 92 64zM286 473q-57 0 -76 -28t-19 -87h187q0 61 -18.5 88t-73.5 27zM109 709q0 31 22 48.5t49 18
t49 -17t22 -49.5q0 -30 -22 -47.5t-49 -18.5t-49 16.5t-22 49.5zM322 709q0 31 22 48.5t48.5 18t48.5 -17t22 -49.5q0 -40 -35.5 -57.5t-70.5 -1t-35 58.5z" />
    <glyph glyph-name="igrave" unicode="&#xec;" horiz-adv-x="260" 
d="M198 577v-578h-137v578h137zM81 634l-76 136h138l57 -136h-119z" />
    <glyph glyph-name="iacute" unicode="&#xed;" horiz-adv-x="259" 
d="M258 773l-76 -136h-119l57 136h138zM198 577v-578h-137v578h137z" />
    <glyph glyph-name="icircumflex" unicode="&#xee;" horiz-adv-x="260" 
d="M131 690l-42 -47h-113v11l127 132h57l126 -132v-11h-115zM198 577v-578h-137v578h137z" />
    <glyph glyph-name="idieresis" unicode="&#xef;" horiz-adv-x="260" 
d="M-42 712q0 33 23 52.5t50.5 20t50.5 -18.5t23 -54q0 -32 -23 -51t-50.5 -20t-50.5 18t-23 53zM153 712q0 33 23 52.5t50.5 20t50.5 -18.5t23 -54q0 -32 -23 -51t-50.5 -20t-50.5 18t-23 53zM198 577v-578h-137v578h137z" />
    <glyph glyph-name="eth" unicode="&#xf0;" horiz-adv-x="546" 
d="M180 581l-33 54l62 36q-52 53 -108 85l4 14h166q26 -18 47 -36l65 38l34 -54l-52 -30q63 -71 99.5 -161t36.5 -186v-121q0 -123 -52 -176t-175 -53q-122 0 -174.5 53t-52.5 176v121q0 107 53.5 159.5t148.5 52.5q35 0 49 -1q-21 36 -47 70zM274 122q48 0 68 20.5t20 77.5
v121q0 51 -20 69.5t-68 18.5t-68 -18.5t-20 -69.5v-121q0 -57 20 -77.5t68 -20.5z" />
    <glyph glyph-name="ntilde" unicode="&#xf1;" horiz-adv-x="605" 
d="M79 0v590h119l7 -60q54 64 139 64q83 1 137.5 -52.5t54.5 -177.5v-364h-136v363q0 107 -89 107q-95 0 -95 -102v-368h-137zM235 665l-76 39q15 49 55.5 74.5t87.5 4.5l46 -23q28 -14 43 24l80 -32q-13 -53 -49.5 -81.5t-87.5 -8.5l-51 24q-7 7 -23 3t-25 -24z" />
    <glyph glyph-name="ograve" unicode="&#xf2;" horiz-adv-x="558" 
d="M279 -10q-117 0 -173 55.5t-56 174.5v142q0 116 56.5 173t172.5 57q117 0 173 -55.5t56 -174.5v-142q0 -119 -56 -174.5t-173 -55.5zM279 112q51 0 71 28.5t20 86.5v128q0 58 -20 86.5t-71 28.5t-71 -28.5t-20 -86.5v-128q0 -58 20 -86.5t71 -28.5zM234 640l-76 136h138
l57 -136h-119z" />
    <glyph glyph-name="oacute" unicode="&#xf3;" horiz-adv-x="558" 
d="M279 -10q-117 0 -173 55.5t-56 174.5v142q0 116 56.5 173t172.5 57q117 0 173 -55.5t56 -174.5v-142q0 -119 -56 -174.5t-173 -55.5zM279 112q51 0 71 28.5t20 86.5v128q0 58 -20 86.5t-71 28.5t-71 -28.5t-20 -86.5v-128q0 -58 20 -86.5t71 -28.5zM412 775l-76 -136
h-119l57 136h138z" />
    <glyph glyph-name="ocircumflex" unicode="&#xf4;" horiz-adv-x="558" 
d="M279 -10q-117 0 -173 55.5t-56 174.5v142q0 116 56.5 173t172.5 57q117 0 173 -55.5t56 -174.5v-142q0 -119 -56 -174.5t-173 -55.5zM279 112q51 0 71 28.5t20 86.5v128q0 58 -20 86.5t-71 28.5t-71 -28.5t-20 -86.5v-128q0 -58 20 -86.5t71 -28.5zM281 689l-47 -45h-127
v10l142 129h64l141 -129v-10h-128z" />
    <glyph glyph-name="otilde" unicode="&#xf5;" horiz-adv-x="558" 
d="M279 -10q-117 0 -173 55.5t-56 174.5v142q0 116 56.5 173t172.5 57q117 0 173 -55.5t56 -174.5v-142q0 -119 -56 -174.5t-173 -55.5zM279 112q51 0 71 28.5t20 86.5v128q0 58 -20 86.5t-71 28.5t-71 -28.5t-20 -86.5v-128q0 -58 20 -86.5t71 -28.5zM199 652l-78 41
q15 50 57 76t89 5l47 -24q30 -13 44 26l82 -34q-14 -55 -51.5 -84.5t-89.5 -8.5l-52 25q-6 8 -22.5 3t-25.5 -25z" />
    <glyph glyph-name="odieresis" unicode="&#xf6;" horiz-adv-x="558" 
d="M279 -10q-117 0 -173 55.5t-56 174.5v142q0 116 56.5 173t172.5 57q117 0 173 -55.5t56 -174.5v-142q0 -119 -56 -174.5t-173 -55.5zM279 112q51 0 71 28.5t20 86.5v128q0 58 -20 86.5t-71 28.5t-71 -28.5t-20 -86.5v-128q0 -58 20 -86.5t71 -28.5zM103 710q0 42 35.5 60
t71.5 1t36 -61q0 -31 -22.5 -49t-49 -18.5t-49 17t-22.5 50.5zM318 710q0 42 36 60t71.5 1t35.5 -61q0 -31 -22.5 -49t-49 -18.5t-49 17t-22.5 50.5z" />
    <glyph glyph-name="divide" unicode="&#xf7;" horiz-adv-x="472" 
d="M156 490q0 33 21 51.5t51 18.5q29 0 51 -18.5t22 -51.5t-22 -51.5t-51 -18.5q-30 0 -51 18.5t-21 51.5zM25 265h408v115h-408v-115zM156 154q0 33 21 51.5t51 18.5q29 0 51 -18.5t22 -51.5t-22 -52t-51 -19q-30 0 -51 19t-21 52z" />
    <glyph glyph-name="oslash" unicode="&#xf8;" horiz-adv-x="558" 
d="M279 -10q-42 0 -79 8l-26 -58h-107l45 100q-62 55 -62 180v142q0 116 56.5 173t172.5 57q41 0 79 -8l28 63h108l-48 -106q62 -55 62 -179v-142q0 -119 -56 -174.5t-173 -55.5zM188 227v-18l117 258q-12 3 -26 3q-51 0 -71 -28.5t-20 -86.5v-128zM279 112q51 0 71 28.5
t20 86.5v128q0 12 -1 17l-116 -258q16 -2 26 -2z" />
    <glyph glyph-name="ugrave" unicode="&#xf9;" horiz-adv-x="596" 
d="M526 591v-590h-122l-7 60q-54 -64 -139 -64q-83 -1 -137.5 52.5t-54.5 177.5v364h136v-363q0 -107 89 -107q95 0 95 102v368h140zM242 646l-76 136h138l57 -136h-119z" />
    <glyph glyph-name="uacute" unicode="&#xfa;" horiz-adv-x="596" 
d="M526 591v-590h-122l-7 60q-54 -64 -139 -64q-83 -1 -137.5 52.5t-54.5 177.5v364h136v-363q0 -107 89 -107q95 0 95 102v368h140zM423 780l-76 -136h-119l57 136h138z" />
    <glyph glyph-name="ucircumflex" unicode="&#xfb;" horiz-adv-x="596" 
d="M526 591v-590h-122l-7 60q-54 -64 -139 -64q-83 -1 -137.5 52.5t-54.5 177.5v364h136v-363q0 -107 89 -107q95 0 95 102v368h140zM299 690l-47 -45h-127v10l142 129h64l141 -129v-10h-128z" />
    <glyph glyph-name="udieresis" unicode="&#xfc;" horiz-adv-x="596" 
d="M526 591v-590h-122l-7 60q-54 -64 -139 -64q-83 -1 -137.5 52.5t-54.5 177.5v364h136v-363q0 -107 89 -107q95 0 95 102v368h140zM116 722q0 43 36.5 61.5t73.5 1t37 -62.5q0 -31 -23 -49.5t-50.5 -19.5t-50.5 17.5t-23 51.5zM337 722q0 43 36.5 61.5t73.5 1t37 -62.5
q0 -31 -23 -49.5t-50.5 -19.5t-50.5 17.5t-23 51.5z" />
    <glyph glyph-name="yacute" unicode="&#xfd;" horiz-adv-x="510" 
d="M355 590h143l-175 -583h1l-32 -114q-19 -65 -51.5 -95.5t-77 -29.5t-101.5 23l21 101q2 -1 12.5 -3.5t14 -3t12 -1.5t12.5 0t10.5 3t10 6.5t7.5 11t7 16.5l23 83l-177 586h143l53 -177q28 -111 46 -248q22 149 46 248zM378 778l-76 -136h-119l57 136h138z" />
    <glyph glyph-name="thorn" unicode="&#xfe;" horiz-adv-x="583" 
d="M66 773h137v-227q42 48 125 48q194 0 194 -228v-152q0 -105 -50.5 -162.5t-147.5 -57.5q-90 0 -121 52v-225h-137v952zM292 121q93 0 93 99v139q0 113 -89 113q-93 0 -93 -118v-135q0 -98 89 -98z" />
    <glyph glyph-name="ydieresis" unicode="&#xff;" horiz-adv-x="510" 
d="M355 590h143l-175 -583h1l-32 -114q-19 -65 -51.5 -95.5t-77 -29.5t-101.5 23l21 101q2 -1 12.5 -3.5t14 -3t12 -1.5t12.5 0t10.5 3t10 6.5t7.5 11t7 16.5l23 83l-177 586h143l53 -177q28 -111 46 -248q22 149 46 248zM76 722q0 43 36.5 61.5t73.5 1t37 -62.5
q0 -31 -23 -49.5t-50.5 -19.5t-50.5 17.5t-23 51.5zM297 722q0 43 36.5 61.5t73.5 1t37 -62.5q0 -31 -23 -49.5t-50.5 -19.5t-50.5 17.5t-23 51.5z" />
    <glyph glyph-name="Amacron" unicode="&#x100;" horiz-adv-x="578" 
d="M359 769l210 -769h-142l-39 136h-197l-40 -136h-142l213 769h137zM225 271h128l-64 285zM162 922h250v-101h-250v101z" />
    <glyph glyph-name="amacron" unicode="&#x101;" horiz-adv-x="543" 
d="M355 235q-189 19 -189 -65q0 -52 81 -52q96 0 108 117zM185 387h-131q-7 107 47.5 156.5t163.5 49.5q114 0 167.5 -57t53.5 -173v-363h-112l-13 68q-55 -76 -155 -76q-76 0 -123 43t-47 124q0 202 319 180q0 70 -18.5 101t-70.5 31q-45 0 -63.5 -18.5t-17.5 -65.5z
M142 775h257v-112h-257v112z" />
    <glyph glyph-name="Abreve" unicode="&#x102;" horiz-adv-x="578" 
d="M359 769l210 -769h-142l-39 136h-197l-40 -136h-142l213 769h137zM225 271h128l-64 285zM144 948h103q0 -46 43 -46q42 0 42 46h104q-1 -134 -146 -134t-146 134z" />
    <glyph glyph-name="abreve" unicode="&#x103;" horiz-adv-x="543" 
d="M355 235q-189 19 -189 -65q0 -52 81 -52q96 0 108 117zM185 387h-131q-7 107 47.5 156.5t163.5 49.5q114 0 167.5 -57t53.5 -173v-363h-112l-13 68q-55 -76 -155 -76q-76 0 -123 43t-47 124q0 202 319 180q0 70 -18.5 101t-70.5 31q-45 0 -63.5 -18.5t-17.5 -65.5z
M124 777h103q0 -46 43 -46q42 0 42 46h104q-1 -134 -146 -134t-146 134z" />
    <glyph glyph-name="Aogonek" unicode="&#x104;" horiz-adv-x="578" 
d="M359 769l210 -769h-10q-38 -25 -50 -54t3 -42q18 -21 62 -9l5 -98q-194 -27 -194 93q0 60 67 110h-25l-39 136h-197l-40 -136h-142l213 769h137zM225 271h128l-64 285z" />
    <glyph glyph-name="aogonek" unicode="&#x105;" horiz-adv-x="543" 
d="M185 387h-131q-7 107 47.5 156.5t163.5 49.5q114 0 167.5 -57t53.5 -173v-363q-32 -12 -48.5 -30.5t-15 -34t7.5 -26.5q18 -21 62 -9l5 -98q-194 -27 -194 93q0 65 71 106l-13 67q-55 -76 -155 -76q-76 0 -123 43t-47 124q0 202 319 180q0 70 -18.5 101t-70.5 31
q-45 0 -63.5 -18.5t-17.5 -65.5zM355 235q-189 19 -189 -65q0 -52 81 -52q96 0 108 117z" />
    <glyph glyph-name="Cacute" unicode="&#x106;" horiz-adv-x="623" 
d="M441 238h138q0 -126 -62.5 -183t-200.5 -57q-136 0 -196.5 55t-60.5 175v313q0 123 59 176.5t198 53.5q140 0 201.5 -55.5t61.5 -183.5h-138q0 62 -25 89.5t-100 27.5q-71 0 -95 -27.5t-24 -87.5v-299q0 -60 24 -87.5t95 -27.5t98 28.5t27 89.5zM451 957l-76 -136h-119
l57 136h138z" />
    <glyph glyph-name="cacute" unicode="&#x107;" horiz-adv-x="553" 
d="M508 370h-130q0 52 -21 76t-71 24q-54 0 -76 -28.5t-22 -86.5v-128q0 -58 20 -86.5t71 -28.5q53 0 75.5 24t23.5 77h130q0 -118 -55.5 -170.5t-173.5 -52.5q-117 0 -173 56t-56 177v132q0 237 233 237q117 0 171 -52t54 -170zM405 777l-76 -136h-119l57 136h138z" />
    <glyph glyph-name="Ccircumflex" unicode="&#x108;" horiz-adv-x="623" 
d="M441 238h138q0 -126 -62.5 -183t-200.5 -57q-136 0 -196.5 55t-60.5 175v313q0 123 59 176.5t198 53.5q140 0 201.5 -55.5t61.5 -183.5h-138q0 62 -25 89.5t-100 27.5q-71 0 -95 -27.5t-24 -87.5v-299q0 -60 24 -87.5t95 -27.5t98 28.5t27 89.5zM318 863l-47 -45h-127v10
l142 129h64l141 -129v-10h-128z" />
    <glyph glyph-name="ccircumflex" unicode="&#x109;" horiz-adv-x="553" 
d="M508 370h-130q0 52 -21 76t-71 24q-54 0 -76 -28.5t-22 -86.5v-128q0 -58 20 -86.5t71 -28.5q53 0 75.5 24t23.5 77h130q0 -118 -55.5 -170.5t-173.5 -52.5q-117 0 -173 56t-56 177v132q0 237 233 237q117 0 171 -52t54 -170zM283 685l-47 -45h-127v10l142 129h64
l141 -129v-10h-128z" />
    <glyph glyph-name="Cdotaccent" unicode="&#x10a;" horiz-adv-x="623" 
d="M441 238h138q0 -126 -62.5 -183t-200.5 -57q-136 0 -196.5 55t-60.5 175v313q0 123 59 176.5t198 53.5q140 0 201.5 -55.5t61.5 -183.5h-138q0 62 -25 89.5t-100 27.5q-71 0 -95 -27.5t-24 -87.5v-299q0 -60 24 -87.5t95 -27.5t98 28.5t27 89.5zM252 897q0 44 36.5 62.5
t73 0.5t36.5 -63q0 -32 -23 -51t-50 -20t-50 18t-23 53z" />
    <glyph glyph-name="cdotaccent" unicode="&#x10b;" horiz-adv-x="553" 
d="M508 370h-130q0 52 -21 76t-71 24q-54 0 -76 -28.5t-22 -86.5v-128q0 -58 20 -86.5t71 -28.5q53 0 75.5 24t23.5 77h130q0 -118 -55.5 -170.5t-173.5 -52.5q-117 0 -173 56t-56 177v132q0 237 233 237q117 0 171 -52t54 -170zM219 715q0 44 36.5 62.5t73 0.5t36.5 -63
q0 -32 -23 -51t-50 -20t-50 18t-23 53z" />
    <glyph glyph-name="Ccaron" unicode="&#x10c;" horiz-adv-x="623" 
d="M441 238h138q0 -126 -62.5 -183t-200.5 -57q-136 0 -196.5 55t-60.5 175v313q0 123 59 176.5t198 53.5q140 0 201.5 -55.5t61.5 -183.5h-138q0 62 -25 89.5t-100 27.5q-71 0 -95 -27.5t-24 -87.5v-299q0 -60 24 -87.5t95 -27.5t98 28.5t27 89.5zM322 917l47 45h127v-10
l-142 -129h-64l-141 129v10h128z" />
    <glyph glyph-name="ccaron" unicode="&#x10d;" horiz-adv-x="553" 
d="M508 370h-130q0 52 -21 76t-71 24q-54 0 -76 -28.5t-22 -86.5v-128q0 -58 20 -86.5t71 -28.5q53 0 75.5 24t23.5 77h130q0 -118 -55.5 -170.5t-173.5 -52.5q-117 0 -173 56t-56 177v132q0 237 233 237q117 0 171 -52t54 -170zM288 727l47 45h127v-10l-142 -129h-64
l-141 129v10h128z" />
    <glyph glyph-name="Dcaron" unicode="&#x10e;" horiz-adv-x="640" 
d="M71 770h253q140 0 201.5 -54t61.5 -176v-314q0 -119 -62.5 -172.5t-200.5 -53.5h-253v770zM208 125h116q72 0 98.5 25t26.5 83v300q0 60 -24 85.5t-99 25.5h-118v-519zM309 908l47 45h127v-10l-142 -129h-64l-141 129v10h128z" />
    <glyph glyph-name="dcaron" unicode="&#x10f;" horiz-adv-x="690" 
d="M591 775h116l-46 -181h-103zM510 0h-113l-10 65q-37 -68 -139 -68q-194 0 -194 228v152q0 105 50.5 162.5t147.5 57.5q90 0 121 -52v225h137v-770zM284 470q-93 0 -93 -99v-139q0 -113 89 -113q93 0 93 118v135q0 98 -89 98z" />
    <glyph glyph-name="Dcroat" unicode="&#x110;" horiz-adv-x="640" 
d="M71 770h253q140 0 201.5 -54t61.5 -176v-314q0 -119 -62.5 -172.5t-200.5 -53.5h-253v307h-64v115h64v348zM208 125h116q72 0 98.5 25t26.5 83v300q0 60 -24 85.5t-99 25.5h-118v-222h105v-115h-105v-182z" />
    <glyph glyph-name="dcroat" unicode="&#x111;" horiz-adv-x="568" 
d="M313 635v77h60v58h137v-58h51v-77h-51v-635h-113l-10 65q-37 -68 -139 -68q-194 0 -194 228v152q0 105 50.5 162.5t147.5 57.5q90 0 121 -52v90h-60zM284 470q-93 0 -93 -99v-139q0 -113 89 -113q93 0 93 118v135q0 98 -89 98z" />
    <glyph glyph-name="Emacron" unicode="&#x112;" 
d="M70 770h443v-120h-305v-198h260v-124h-260v-203h319v-126h-457v771zM167 938h255v-112h-255v112z" />
    <glyph glyph-name="emacron" unicode="&#x113;" 
d="M376 181h135q0 -93 -56.5 -138t-172.5 -45q-117 0 -173 55.5t-56 174.5v134q0 230 229 230q117 0 173 -55.5t56 -174.5v-117h-320v-15q0 -66 23 -89.5t70 -23.5q92 0 92 64zM286 473q-57 0 -76 -28t-19 -87h187q0 61 -18.5 88t-73.5 27zM162 775h254v-116h-254v116z" />
    <glyph glyph-name="Ebreve" unicode="&#x114;" 
d="M70 770h443v-120h-305v-198h260v-124h-260v-203h319v-126h-457v771zM145 955h103q0 -46 43 -46q42 0 42 46h104q-1 -134 -146 -134t-146 134z" />
    <glyph glyph-name="ebreve" unicode="&#x115;" 
d="M376 181h135q0 -93 -56.5 -138t-172.5 -45q-117 0 -173 55.5t-56 174.5v134q0 230 229 230q117 0 173 -55.5t56 -174.5v-117h-320v-15q0 -66 23 -89.5t70 -23.5q92 0 92 64zM286 473q-57 0 -76 -28t-19 -87h187q0 61 -18.5 88t-73.5 27zM138 775h103q0 -46 43 -46
q42 0 42 46h104q-1 -134 -146 -134t-146 134z" />
    <glyph glyph-name="Edotaccent" unicode="&#x116;" 
d="M70 770h443v-120h-305v-198h260v-124h-260v-203h319v-126h-457v771zM231 891q0 44 36.5 62.5t73 0.5t36.5 -63q0 -32 -23 -51t-50 -20t-50 18t-23 53z" />
    <glyph glyph-name="edotaccent" unicode="&#x117;" 
d="M376 181h135q0 -93 -56.5 -138t-172.5 -45q-117 0 -173 55.5t-56 174.5v134q0 230 229 230q117 0 173 -55.5t56 -174.5v-117h-320v-15q0 -66 23 -89.5t70 -23.5q92 0 92 64zM286 473q-57 0 -76 -28t-19 -87h187q0 61 -18.5 88t-73.5 27zM217 711q0 44 36.5 62.5t73 0.5
t36.5 -63q0 -32 -23 -51t-50 -20t-50 18t-23 53z" />
    <glyph glyph-name="Eogonek" unicode="&#x118;" 
d="M70 770h443v-120h-305v-198h260v-124h-260v-203h319v-123q-30 -16 -46 -36t-16 -35t7 -26q18 -21 62 -9l5 -98q-194 -27 -194 93q0 66 74 108h-349v771z" />
    <glyph glyph-name="eogonek" unicode="&#x119;" 
d="M376 181h135q0 -99 -62 -143l2 1q-33 -29 -51 -57.5t-18.5 -46.5t6.5 -30q18 -21 62 -9l5 -98q-194 -27 -194 93q0 67 59 109q-24 -2 -38 -2q-117 0 -173 55.5t-56 174.5v134q0 230 229 230q117 0 173 -55.5t56 -174.5v-117h-320v-15q0 -66 23 -89.5t70 -23.5q92 0 92 64
zM286 473q-57 0 -76 -28t-19 -87h187q0 61 -18.5 88t-73.5 27z" />
    <glyph glyph-name="Ecaron" unicode="&#x11a;" 
d="M70 770h443v-120h-305v-198h260v-124h-260v-203h319v-126h-457v771zM298 915l47 45h127v-10l-142 -129h-64l-141 129v10h128z" />
    <glyph glyph-name="ecaron" unicode="&#x11b;" 
d="M376 181h135q0 -93 -56.5 -138t-172.5 -45q-117 0 -173 55.5t-56 174.5v134q0 230 229 230q117 0 173 -55.5t56 -174.5v-117h-320v-15q0 -66 23 -89.5t70 -23.5q92 0 92 64zM286 473q-57 0 -76 -28t-19 -87h187q0 61 -18.5 88t-73.5 27zM288 726l47 45h127v-10l-142 -129
h-64l-141 129v10h128z" />
    <glyph glyph-name="Gcircumflex" unicode="&#x11c;" horiz-adv-x="631" 
d="M318 313v125h259v-200q0 -127 -63 -184.5t-200 -57.5q-136 0 -196.5 57t-60.5 182v309q0 120 60 175t197 55q140 0 201.5 -53.5t61.5 -176.5h-138q0 58 -24.5 83t-100.5 25q-70 0 -94.5 -28.5t-24.5 -86.5v-302q0 -60 24 -87.5t95 -27.5q73 0 104 29.5t31 88.5v75h-131z
M318 867l-47 -45h-127v10l142 129h64l141 -129v-10h-128z" />
    <glyph glyph-name="gcircumflex" unicode="&#x11d;" horiz-adv-x="549" 
d="M246 -3q-94 0 -145 54.5t-51 166.5v147q0 228 192 228q97 0 134 -68l10 65h113v-605q0 -226 -223 -226q-213 0 -213 187h131q0 -70 82 -70q52 0 73.5 26.5t21.5 83.5v71q-39 -60 -125 -60zM272 118q50 0 71 30t21 90v115q0 118 -90 118q-43 0 -65 -26t-22 -87v-123
q0 -61 21 -89t64 -28zM293 684l-47 -45h-127v10l142 129h64l141 -129v-10h-128z" />
    <glyph glyph-name="Gbreve" unicode="&#x11e;" horiz-adv-x="631" 
d="M318 313v125h259v-200q0 -127 -63 -184.5t-200 -57.5q-136 0 -196.5 57t-60.5 182v309q0 120 60 175t197 55q140 0 201.5 -53.5t61.5 -176.5h-138q0 58 -24.5 83t-100.5 25q-70 0 -94.5 -28.5t-24.5 -86.5v-302q0 -60 24 -87.5t95 -27.5q73 0 104 29.5t31 88.5v75h-131z
M175 959h103q0 -46 43 -46q42 0 42 46h104q-1 -134 -146 -134t-146 134z" />
    <glyph glyph-name="gbreve" unicode="&#x11f;" horiz-adv-x="549" 
d="M246 -3q-94 0 -145 54.5t-51 166.5v147q0 228 192 228q97 0 134 -68l10 65h113v-605q0 -226 -223 -226q-213 0 -213 187h131q0 -70 82 -70q52 0 73.5 26.5t21.5 83.5v71q-39 -60 -125 -60zM272 118q50 0 71 30t21 90v115q0 118 -90 118q-43 0 -65 -26t-22 -87v-123
q0 -61 21 -89t64 -28zM134 773h103q0 -46 43 -46q42 0 42 46h104q-1 -134 -146 -134t-146 134z" />
    <glyph glyph-name="Gdotaccent" unicode="&#x120;" horiz-adv-x="631" 
d="M318 313v125h259v-200q0 -127 -63 -184.5t-200 -57.5q-136 0 -196.5 57t-60.5 182v309q0 120 60 175t197 55q140 0 201.5 -53.5t61.5 -176.5h-138q0 58 -24.5 83t-100.5 25q-70 0 -94.5 -28.5t-24.5 -86.5v-302q0 -60 24 -87.5t95 -27.5q73 0 104 29.5t31 88.5v75h-131z
M254 896q0 44 36.5 62.5t73 0.5t36.5 -63q0 -32 -23 -51t-50 -20t-50 18t-23 53z" />
    <glyph glyph-name="gdotaccent" unicode="&#x121;" horiz-adv-x="549" 
d="M246 -3q-94 0 -145 54.5t-51 166.5v147q0 228 192 228q97 0 134 -68l10 65h113v-605q0 -226 -223 -226q-213 0 -213 187h131q0 -70 82 -70q52 0 73.5 26.5t21.5 83.5v71q-39 -60 -125 -60zM272 118q50 0 71 30t21 90v115q0 118 -90 118q-43 0 -65 -26t-22 -87v-123
q0 -61 21 -89t64 -28zM211 722q0 44 36.5 62.5t73 0.5t36.5 -63q0 -32 -23 -51t-50 -20t-50 18t-23 53z" />
    <glyph glyph-name="Gcommaaccent" unicode="&#x122;" horiz-adv-x="631" 
d="M318 313v125h259v-200q0 -127 -63 -184.5t-200 -57.5q-136 0 -196.5 57t-60.5 182v309q0 120 60 175t197 55q140 0 201.5 -53.5t61.5 -176.5h-138q0 58 -24.5 83t-100.5 25q-70 0 -94.5 -28.5t-24.5 -86.5v-302q0 -60 24 -87.5t95 -27.5q73 0 104 29.5t31 88.5v75h-131z
M262 -251l-46 63q16 10 26 20t15.5 18t7.5 21.5t2 21.5t-0.5 27t-0.5 30h130q8 -80 -24.5 -128.5t-109.5 -72.5z" />
    <glyph glyph-name="gcommaaccent" unicode="&#x123;" horiz-adv-x="549" 
d="M350 825l45 -59q-15 -9 -25.5 -18.5t-15.5 -17t-7 -20t-2 -20.5t0.5 -25.5t0.5 -27.5h-127q-8 75 24 120t107 68zM246 -3q-94 0 -145 54.5t-51 166.5v147q0 228 192 228q97 0 134 -68l10 65h113v-605q0 -226 -223 -226q-213 0 -213 187h131q0 -70 82 -70q52 0 73.5 26.5
t21.5 83.5v71q-39 -60 -125 -60zM272 118q50 0 71 30t21 90v115q0 118 -90 118q-43 0 -65 -26t-22 -87v-123q0 -61 21 -89t64 -28z" />
    <glyph glyph-name="Hcircumflex" unicode="&#x124;" horiz-adv-x="655" 
d="M586 757v-757h-137v304h-240v-305h-139v758h139v-327h240v327h137zM330 864l-47 -45h-127v10l142 129h64l141 -129v-10h-128z" />
    <glyph glyph-name="hcircumflex" unicode="&#x125;" horiz-adv-x="558" 
d="M503 0h-137v371q0 53 -21 75.5t-65 23.5q-88 0 -88 -98v-372h-137v770h137v-227q42 52 124 52q94 0 140.5 -55t46.5 -153v-387zM263 862l-47 -45h-127v10l142 129h64l141 -129v-10h-128z" />
    <glyph glyph-name="Hbar" unicode="&#x126;" horiz-adv-x="643" 
d="M586 757v-128h67v-87h-67v-542h-137v304h-240v-304h-139v542h-74v87h74v128h139v-128h240v128h137zM209 430h240v112h-240v-112z" />
    <glyph glyph-name="hbar" unicode="&#x127;" horiz-adv-x="555" 
d="M2 630v76h53v64h137v-64h71v-76h-71v-87q42 52 124 52q94 0 140.5 -55t46.5 -153v-387h-137v371q0 53 -21 75.5t-65 23.5q-88 0 -88 -98v-372h-137v630h-53z" />
    <glyph glyph-name="Itilde" unicode="&#x128;" horiz-adv-x="279" 
d="M209 769v-770h-139v770h139zM61 833l-79 43q15 52 57.5 78.5t89.5 4.5l47 -24q31 -14 45 26l82 -35q-14 -56 -51.5 -87t-89.5 -9l-53 26q-7 8 -23 3.5t-25 -26.5z" />
    <glyph glyph-name="itilde" unicode="&#x129;" horiz-adv-x="268" 
d="M204 577v-578h-137v578h137zM61 651l-72 41q14 50 52.5 76t81.5 5l44 -24q27 -12 41 26l75 -34q-13 -55 -47.5 -84.5t-82.5 -8.5l-48 25q-6 8 -21 3t-23 -25z" />
    <glyph glyph-name="Imacron" unicode="&#x12a;" horiz-adv-x="279" 
d="M209 769v-770h-139v770h139zM13 947h255v-113h-255v113z" />
    <glyph glyph-name="imacron" unicode="&#x12b;" horiz-adv-x="268" 
d="M204 577v-578h-137v578h137zM10 775h254v-116h-254v116z" />
    <glyph glyph-name="Ibreve" unicode="&#x12c;" horiz-adv-x="269" 
d="M199 769v-770h-139v770h139zM-16 956h103q0 -46 43 -46q42 0 42 46h104q-1 -134 -146 -134t-146 134z" />
    <glyph glyph-name="ibreve" unicode="&#x12d;" horiz-adv-x="248" 
d="M191 577v-578h-137v578h137zM-12 773h96q0 -50 39 -50t39 50h96q0 -75 -33 -111t-102 -36q-134 0 -135 147z" />
    <glyph glyph-name="Iogonek" unicode="&#x12e;" horiz-adv-x="279" 
d="M209 769v-770q-27 -13 -41 -32.5t-12.5 -34.5t8.5 -26q18 -21 62 -9l5 -98q-194 -27 -194 93q0 65 72 107h-39v770h139z" />
    <glyph glyph-name="iogonek" unicode="&#x12f;" horiz-adv-x="280" 
d="M208 577v-578q-28 -12 -44 -31.5t-16 -35t7 -26.5q18 -21 62 -9l5 -98q-194 -27 -194 93q0 65 72 107h-29v578h137zM63 709q0 48 38.5 67.5t77.5 0t39 -67.5q0 -35 -24 -55.5t-53.5 -20.5t-53.5 20t-24 56z" />
    <glyph glyph-name="Idotaccent" unicode="&#x130;" horiz-adv-x="279" 
d="M209 769v-770h-139v770h139zM63 890q0 34 24.5 54t53.5 20.5t53.5 -19.5t24.5 -55q0 -45 -39 -64.5t-78 -1.5t-39 66z" />
    <glyph glyph-name="dotlessi" unicode="&#x131;" horiz-adv-x="272" 
d="M208 577v-578h-137v578h137z" />
    <glyph glyph-name="IJ" unicode="&#x132;" horiz-adv-x="822" 
d="M215 769v-770h-139v770h139zM765 770v-545q0 -119 -56 -174.5t-173 -55.5q-229 0 -229 237h138q0 -58 20 -86.5t71 -28.5t71 28.5t20 86.5v538h138z" />
    <glyph glyph-name="ij" unicode="&#x133;" horiz-adv-x="541" 
d="M208 577v-578h-137v578h137zM63 709q0 48 38.5 67.5t77.5 0t39 -67.5q0 -35 -24 -55.5t-53.5 -20.5t-53.5 20t-24 56zM478 582v-550q0 -129 -47.5 -174.5t-169.5 -45.5v117q47 0 63.5 17.5t16.5 82.5v553h137zM333 709q0 48 38.5 67.5t77.5 0t39 -67.5q0 -35 -24 -55.5
t-53.5 -20.5t-53.5 20t-24 56z" />
    <glyph glyph-name="Jcircumflex" unicode="&#x134;" horiz-adv-x="526" 
d="M466 770v-545q0 -119 -56 -174.5t-173 -55.5q-229 0 -229 237h138q0 -58 20 -86.5t71 -28.5t71 28.5t20 86.5v538h138zM382 867l-47 -45h-127v10l142 129h64l141 -129v-10h-128z" />
    <glyph glyph-name="jcircumflex" unicode="&#x135;" horiz-adv-x="258" 
d="M205 582v-550q0 -129 -47.5 -174.5t-169.5 -45.5v117q47 0 63.5 17.5t16.5 82.5v553h137zM140 682l-42 -48h-113v11l126 136h57l126 -136v-11h-114z" />
    <glyph glyph-name="Kcommaaccent" unicode="&#x136;" horiz-adv-x="616" 
d="M626 0h-168l-217 309h-39v-309h-137v770h138v-324h37l202 324h161l-251 -385zM260 -220l-47 60q16 9 26.5 18.5t16 17t7.5 20.5t2 20.5t-0.5 25.5t-0.5 28h132q8 -75 -25 -121t-111 -69z" />
    <glyph glyph-name="kcommaaccent" unicode="&#x137;" horiz-adv-x="541" 
d="M549 0h-154l-164 256h-39v-256h-137v772h137v-392h37l146 210h154l-189 -265zM229 -233l-41 60q17 10 26.5 20t13.5 25t5.5 21.5t0.5 31t-1 32.5h116q7 -75 -22 -121t-98 -69z" />
    <glyph glyph-name="kgreenlandic" unicode="&#x138;" horiz-adv-x="549" 
d="M549 0h-154l-164 256h-39v-256h-137v589h137v-209h37l146 207h154l-189 -262z" />
    <glyph glyph-name="Lacute" unicode="&#x139;" horiz-adv-x="530" 
d="M506 126v-126h-436v770h139v-644h297zM275 954l-76 -136h-119l57 136h138z" />
    <glyph glyph-name="lacute" unicode="&#x13a;" horiz-adv-x="306" 
d="M70 216v555h137v-553q0 -50 13.5 -68t55.5 -18v-132q-120 0 -163 45t-43 171zM274 955l-76 -136h-119l57 136h138z" />
    <glyph glyph-name="uni013B" unicode="&#x13b;" horiz-adv-x="530" 
d="M506 126v-126h-436v770h139v-644h297zM229 -237l-41 60q17 10 26.5 20t13.5 25t5.5 21.5t0.5 31t-1 32.5h116q7 -75 -22 -121t-98 -69z" />
    <glyph glyph-name="uni013C" unicode="&#x13c;" horiz-adv-x="306" 
d="M70 216v555h137v-553q0 -50 13.5 -68t55.5 -18v-132q-120 0 -163 45t-43 171zM127 -237l-41 60q17 10 26.5 20t13.5 25t5.5 21.5t0.5 31t-1 32.5h116q7 -75 -22 -121t-98 -69z" />
    <glyph glyph-name="Lcaron" unicode="&#x13d;" horiz-adv-x="530" 
d="M506 126v-126h-436v770h139v-644h297zM95 817l42 149h127l-60 -149h-109z" />
    <glyph glyph-name="lcaron" unicode="&#x13e;" horiz-adv-x="424" 
d="M70 216v555h137v-553q0 -50 13.5 -68t55.5 -18v-132q-120 0 -163 45t-43 171zM275 582l39 189h114l-54 -189h-99z" />
    <glyph glyph-name="Ldot" unicode="&#x13f;" horiz-adv-x="529" 
d="M506 126v-126h-436v770h139v-644h297zM306 366q0 38 26.5 60t58.5 22.5t58.5 -21t26.5 -61.5q0 -37 -26.5 -59.5t-58.5 -23t-58.5 21t-26.5 61.5z" />
    <glyph glyph-name="ldot" unicode="&#x140;" horiz-adv-x="462" 
d="M70 216v555h137v-553q0 -50 13.5 -68t55.5 -18v-132q-120 0 -163 45t-43 171zM276 368q0 38 26.5 60t58.5 22.5t58.5 -21t26.5 -61.5q0 -37 -26.5 -59.5t-58.5 -23t-58.5 21t-26.5 61.5z" />
    <glyph glyph-name="Lslash" unicode="&#x141;" horiz-adv-x="530" 
d="M506 126v-126h-436v279l-58 -23v99l58 23v392h139v-336l96 39v-99l-96 -39v-209h297z" />
    <glyph glyph-name="lslash" unicode="&#x142;" horiz-adv-x="306" 
d="M70 216v90l-67 -25v99l67 25v366h137v-315l82 31v-99l-82 -31v-139q0 -50 13.5 -68t55.5 -18v-132q-120 0 -163 45t-43 171z" />
    <glyph glyph-name="Nacute" unicode="&#x143;" horiz-adv-x="623" 
d="M554 769v-769h-134l-226 488l12 -292v-196h-137v769h137l226 -507l-15 325v182h137zM437 958l-76 -136h-119l57 136h138z" />
    <glyph glyph-name="nacute" unicode="&#x144;" horiz-adv-x="605" 
d="M79 0v590h119l7 -60q54 64 139 64q83 1 137.5 -52.5t54.5 -177.5v-364h-136v363q0 107 -89 107q-95 0 -95 -102v-368h-137zM438 785l-76 -136h-119l57 136h138z" />
    <glyph glyph-name="Ncommaaccent" unicode="&#x145;" horiz-adv-x="623" 
d="M554 769v-769h-134l-226 488l12 -292v-196h-137v769h137l226 -507l-15 325v182h137zM240 -237l-49 64q20 11 32 21.5t17 26.5t6 23t0 32.5t-1 34.5h140q9 -80 -26.5 -128.5t-118.5 -73.5z" />
    <glyph glyph-name="ncommaaccent" unicode="&#x146;" horiz-adv-x="605" 
d="M79 0v590h119l7 -60q54 64 139 64q83 1 137.5 -52.5t54.5 -177.5v-364h-136v363q0 107 -89 107q-95 0 -95 -102v-368h-137zM243 -237l-44 62q15 9 24.5 19t15 18t7.5 21.5t2 21.5t-0.5 26.5t-0.5 28.5h124q8 -78 -23.5 -126t-104.5 -71z" />
    <glyph glyph-name="Ncaron" unicode="&#x147;" horiz-adv-x="623" 
d="M554 769v-769h-134l-226 488l12 -292v-196h-137v769h137l226 -507l-15 325v182h137zM305 909l47 45h127v-10l-142 -129h-64l-141 129v10h128z" />
    <glyph glyph-name="ncaron" unicode="&#x148;" horiz-adv-x="605" 
d="M79 0v590h119l7 -60q54 64 139 64q83 1 137.5 -52.5t54.5 -177.5v-364h-136v363q0 107 -89 107q-95 0 -95 -102v-368h-137zM304 731l47 45h127v-10l-142 -129h-64l-141 129v10h128z" />
    <glyph glyph-name="napostrophe" unicode="&#x149;" horiz-adv-x="605" 
d="M79 0v590h119l7 -60q54 64 139 64q83 1 137.5 -52.5t54.5 -177.5v-364h-136v363q0 107 -89 107q-95 0 -95 -102v-368h-137z" />
    <glyph glyph-name="Eng" unicode="&#x14a;" horiz-adv-x="623" 
d="M554 769v-769q0 -117 -48 -156t-168 -39v113q44 0 61 15.5t19 70.5l-224 484l12 -292v-196h-137v769h137l226 -507l-15 325v182h137z" />
    <glyph glyph-name="eng" unicode="&#x14b;" horiz-adv-x="605" 
d="M79 0v590h119l7 -60q54 64 139 64q83 1 137.5 -52.5t54.5 -177.5v-343q0 -128 -46.5 -172t-169.5 -44v113q47 0 63.5 17.5t16.5 82.5v345q0 107 -89 107q-95 0 -95 -102v-368h-137z" />
    <glyph glyph-name="Omacron" unicode="&#x14c;" horiz-adv-x="641" 
d="M316 -7q-136 0 -196.5 55t-60.5 175v326q0 123 59 176.5t198 53.5q140 0 201.5 -54t61.5 -176v-326q0 -119 -63 -174.5t-200 -55.5zM316 115q71 0 98 28t27 87v312q0 59 -25 87t-100 28q-70 0 -94.5 -28.5t-24.5 -86.5v-312q0 -60 24 -87.5t95 -27.5zM201 942h247v-105
h-247v105z" />
    <glyph glyph-name="omacron" unicode="&#x14d;" horiz-adv-x="558" 
d="M279 -10q-117 0 -173 55.5t-56 174.5v142q0 116 56.5 173t172.5 57q117 0 173 -55.5t56 -174.5v-142q0 -119 -56 -174.5t-173 -55.5zM279 112q51 0 71 28.5t20 86.5v128q0 58 -20 86.5t-71 28.5t-71 -28.5t-20 -86.5v-128q0 -58 20 -86.5t71 -28.5zM157 769h249v-107
h-249v107z" />
    <glyph glyph-name="Obreve" unicode="&#x14e;" horiz-adv-x="641" 
d="M316 -7q-136 0 -196.5 55t-60.5 175v326q0 123 59 176.5t198 53.5q140 0 201.5 -54t61.5 -176v-326q0 -119 -63 -174.5t-200 -55.5zM316 115q71 0 98 28t27 87v312q0 59 -25 87t-100 28q-70 0 -94.5 -28.5t-24.5 -86.5v-312q0 -60 24 -87.5t95 -27.5zM172 957h103
q0 -46 43 -46q42 0 42 46h104q-1 -134 -146 -134t-146 134z" />
    <glyph glyph-name="obreve" unicode="&#x14f;" horiz-adv-x="558" 
d="M279 -10q-117 0 -173 55.5t-56 174.5v142q0 116 56.5 173t172.5 57q117 0 173 -55.5t56 -174.5v-142q0 -119 -56 -174.5t-173 -55.5zM279 112q51 0 71 28.5t20 86.5v128q0 58 -20 86.5t-71 28.5t-71 -28.5t-20 -86.5v-128q0 -58 20 -86.5t71 -28.5zM134 773h103
q0 -46 43 -46q42 0 42 46h104q-1 -134 -146 -134t-146 134z" />
    <glyph glyph-name="Ohungarumlaut" unicode="&#x150;" horiz-adv-x="641" 
d="M316 -7q-136 0 -196.5 55t-60.5 175v326q0 123 59 176.5t198 53.5q140 0 201.5 -54t61.5 -176v-326q0 -119 -63 -174.5t-200 -55.5zM316 115q71 0 98 28t27 87v312q0 59 -25 87t-100 28q-70 0 -94.5 -28.5t-24.5 -86.5v-312q0 -60 24 -87.5t95 -27.5zM176 823l65 114h120
v-2l-79 -112h-106zM339 822l65 115h120v-2l-78 -113h-107z" />
    <glyph glyph-name="ohungarumlaut" unicode="&#x151;" horiz-adv-x="558" 
d="M279 -10q-117 0 -173 55.5t-56 174.5v142q0 116 56.5 173t172.5 57q117 0 173 -55.5t56 -174.5v-142q0 -119 -56 -174.5t-173 -55.5zM279 112q51 0 71 28.5t20 86.5v128q0 58 -20 86.5t-71 28.5t-71 -28.5t-20 -86.5v-128q0 -58 20 -86.5t71 -28.5zM137 640l64 123h120
v-3l-79 -120h-105zM299 639l64 124h120v-3l-78 -121h-106z" />
    <glyph glyph-name="OE" unicode="&#x152;" horiz-adv-x="795" 
d="M375 772h372v-120h-244v-198h216v-124h-216v-204h250v-126h-454q-135 0 -191.5 54.5t-56.5 175.5v312q0 124 55 177t193 53h76zM189 237q0 -62 20.5 -88.5t89.5 -26.5h76v528h-76q-69 0 -89.5 -27.5t-20.5 -87.5v-298z" />
    <glyph glyph-name="oe" unicode="&#x153;" horiz-adv-x="860" 
d="M689 181h129q0 -101 -54 -144t-175 -43q-100 0 -152 69q-52 -73 -158 -73q-117 0 -173 55.5t-56 174.5v142q0 116 56.5 173t172.5 57q99 0 157 -69q21 30 62.5 49.5t90.5 19.5q117 0 173 -55.5t56 -174.5v-117h-323v-22q1 -62 25.5 -84.5t70.5 -22.5q98 0 98 65zM279 112
q52 0 72.5 28.5t20.5 86.5v1v134q-2 54 -23 81t-70 27q-51 0 -71 -28.5t-20 -86.5v-128q0 -58 20 -86.5t71 -28.5zM593 473q-55 0 -76 -26t-22 -79v-6v-4h190q0 61 -18.5 88t-73.5 27z" />
    <glyph glyph-name="Racute" unicode="&#x154;" horiz-adv-x="594" 
d="M573 0h-161l-153 271h-51v-271h-138v770h194q141 0 207 -55t66 -176v-40q0 -86 -31.5 -135t-101.5 -71zM207 398h57q72 0 100 25.5t28 82.5v26q0 59 -25 85t-101 26h-59v-245zM404 952l-76 -136h-119l57 136h138z" />
    <glyph glyph-name="racute" unicode="&#x155;" horiz-adv-x="385" 
d="M356 593v-145q-70 9 -114.5 -19t-44.5 -92v-338h-137v591h126l6 -62q19 33 65.5 53.5t98.5 11.5zM269 780l-76 -136h-119l57 136h138z" />
    <glyph glyph-name="Rcommaaccent" unicode="&#x156;" horiz-adv-x="594" 
d="M573 0h-161l-153 271h-51v-271h-138v770h194q141 0 207 -55t66 -176v-40q0 -86 -31.5 -135t-101.5 -71zM207 398h57q72 0 100 25.5t28 82.5v26q0 59 -25 85t-101 26h-59v-245zM239 -237l-47 62q16 9 26.5 19t16 18t8 21.5t2.5 21.5t-0.5 27t-0.5 29h134q9 -78 -25 -126
t-114 -72z" />
    <glyph glyph-name="rcommaaccent" unicode="&#x157;" horiz-adv-x="379" 
d="M350 593v-145q-70 9 -114.5 -19t-44.5 -92v-338h-137v591h126l6 -62q19 33 65.5 53.5t98.5 11.5zM55 -223l-42 55q14 8 23.5 17t14.5 15.5t7.5 19t2.5 19t-0.5 23.5t-0.5 25h120q7 -69 -23 -111t-102 -63z" />
    <glyph glyph-name="Rcaron" unicode="&#x158;" horiz-adv-x="594" 
d="M573 0h-161l-153 271h-51v-271h-138v770h194q141 0 207 -55t66 -176v-40q0 -86 -31.5 -135t-101.5 -71zM207 398h57q72 0 100 25.5t28 82.5v26q0 59 -25 85t-101 26h-59v-245zM283 902l49 41h131v-9l-147 -119h-66l-147 119v9h133z" />
    <glyph glyph-name="rcaron" unicode="&#x159;" horiz-adv-x="385" 
d="M356 593v-145q-70 9 -114.5 -19t-44.5 -92v-338h-137v591h126l6 -62q19 33 65.5 53.5t98.5 11.5zM222 725l47 40h127v-9l-142 -116h-64l-141 116v9h128z" />
    <glyph glyph-name="Sacute" unicode="&#x15a;" horiz-adv-x="604" 
d="M403 569q-3 47 -28 65.5t-77 18.5q-58 0 -82.5 -21.5t-24.5 -75.5q0 -20 4 -35t14.5 -25.5t20.5 -16.5t30.5 -11t34.5 -7t43 -5.5t47 -6.5q38 -6 65.5 -16.5t54 -32.5t40.5 -61t14 -94q0 -134 -61.5 -193.5t-200.5 -59.5q-253 0 -253 217h139q2 -47 28 -69t89 -22
t92 28.5t29 93.5q0 19 -5.5 33.5t-18.5 24.5t-24 16.5t-33.5 11.5t-34.5 7t-38.5 5t-35.5 4q-179 23 -179 213q0 107 63.5 163t182.5 56q111 0 173 -47.5t71 -157.5h-139zM428 953l-76 -136h-119l57 136h138z" />
    <glyph glyph-name="sacute" unicode="&#x15b;" horiz-adv-x="521" 
d="M483 405h-134q0 32 -22 48.5t-57 16.5q-85 0 -85 -62q0 -16 6 -27t14 -17t24.5 -9.5t28.5 -5t36 -3t38 -3.5q67 -8 112.5 -48t45.5 -113q0 -92 -63.5 -138.5t-164.5 -46.5q-105 0 -164.5 49.5t-59.5 135.5h139q2 -33 23 -49t68 -16q39 0 61 18t22 42q0 8 -2 15t-7 12
t-10 9t-14.5 7t-16.5 5t-19.5 4t-20.5 3t-23 2.5t-23 2.5q-169 22 -169 164q0 96 61 144t162 48q105 0 159.5 -52t54.5 -136zM393 775l-76 -136h-119l57 136h138z" />
    <glyph glyph-name="Scircumflex" unicode="&#x15c;" horiz-adv-x="604" 
d="M403 569q-3 47 -28 65.5t-77 18.5q-58 0 -82.5 -21.5t-24.5 -75.5q0 -20 4 -35t14.5 -25.5t20.5 -16.5t30.5 -11t34.5 -7t43 -5.5t47 -6.5q38 -6 65.5 -16.5t54 -32.5t40.5 -61t14 -94q0 -134 -61.5 -193.5t-200.5 -59.5q-253 0 -253 217h139q2 -47 28 -69t89 -22
t92 28.5t29 93.5q0 19 -5.5 33.5t-18.5 24.5t-24 16.5t-33.5 11.5t-34.5 7t-38.5 5t-35.5 4q-179 23 -179 213q0 107 63.5 163t182.5 56q111 0 173 -47.5t71 -157.5h-139zM301 864l-47 -45h-127v10l142 129h64l141 -129v-10h-128z" />
    <glyph glyph-name="scircumflex" unicode="&#x15d;" horiz-adv-x="521" 
d="M483 405h-134q0 32 -22 48.5t-57 16.5q-85 0 -85 -62q0 -16 6 -27t14 -17t24.5 -9.5t28.5 -5t36 -3t38 -3.5q67 -8 112.5 -48t45.5 -113q0 -92 -63.5 -138.5t-164.5 -46.5q-105 0 -164.5 49.5t-59.5 135.5h139q2 -33 23 -49t68 -16q39 0 61 18t22 42q0 8 -2 15t-7 12
t-10 9t-14.5 7t-16.5 5t-19.5 4t-20.5 3t-23 2.5t-23 2.5q-169 22 -169 164q0 96 61 144t162 48q105 0 159.5 -52t54.5 -136zM272 681l-45 -46h-122v10l136 134h62l136 -134v-10h-124z" />
    <glyph glyph-name="Scedilla" unicode="&#x15e;" horiz-adv-x="604" 
d="M234 -84l25 77q-215 15 -215 216h139q2 -47 28 -69t89 -22t92 28.5t29 93.5q0 19 -5.5 33.5t-18.5 24.5t-24 16.5t-33.5 11.5t-34.5 7t-38.5 5t-35.5 4q-179 23 -179 213q0 107 63.5 163t182.5 56q111 0 173 -47.5t71 -157.5h-139q-3 47 -28 65.5t-77 18.5
q-58 0 -82.5 -21.5t-24.5 -75.5q0 -20 4 -35t14.5 -25.5t20.5 -16.5t30.5 -11t34.5 -7t43 -5.5t47 -6.5q38 -6 65.5 -16.5t54 -32.5t40.5 -61t14 -94q0 -118 -47 -177.5t-151 -71.5l-12 -36q58 -3 78.5 -36t9.5 -78q-13 -50 -63.5 -75t-109 -16.5t-94.5 46.5l44 63
q21 -20 59.5 -23t52.5 25q5 20 -22 34t-70 16z" />
    <glyph glyph-name="scedilla" unicode="&#x15f;" horiz-adv-x="521" 
d="M198 -75l25 74q-88 9 -136.5 57.5t-48.5 125.5h139q2 -33 23 -49t68 -16q39 0 61 18t22 42q0 8 -2 15t-7 12t-10 9t-14.5 7t-16.5 5t-19.5 4t-20.5 3t-23 2.5t-23 2.5q-169 22 -169 164q0 96 61 144t162 48q105 0 159.5 -52t54.5 -136h-134q0 32 -22 48.5t-57 16.5
q-85 0 -85 -62q0 -16 6 -27t14 -17t24.5 -9.5t28.5 -5t36 -3t38 -3.5q67 -8 112.5 -48t45.5 -113q0 -78 -46 -123.5t-124 -57.5l-12 -34q56 -3 76 -34t9 -74q-13 -48 -61.5 -71.5t-104 -15.5t-90.5 45l42 59q20 -19 57 -22t51 24q4 20 -22 32.5t-67 14.5z" />
    <glyph glyph-name="Scaron" unicode="&#x160;" horiz-adv-x="604" 
d="M403 569q-3 47 -28 65.5t-77 18.5q-58 0 -82.5 -21.5t-24.5 -75.5q0 -20 4 -35t14.5 -25.5t20.5 -16.5t30.5 -11t34.5 -7t43 -5.5t47 -6.5q38 -6 65.5 -16.5t54 -32.5t40.5 -61t14 -94q0 -134 -61.5 -193.5t-200.5 -59.5q-253 0 -253 217h139q2 -47 28 -69t89 -22
t92 28.5t29 93.5q0 19 -5.5 33.5t-18.5 24.5t-24 16.5t-33.5 11.5t-34.5 7t-38.5 5t-35.5 4q-179 23 -179 213q0 107 63.5 163t182.5 56q111 0 173 -47.5t71 -157.5h-139zM300 915l47 45h127v-10l-142 -129h-64l-141 129v10h128z" />
    <glyph glyph-name="scaron" unicode="&#x161;" horiz-adv-x="521" 
d="M483 405h-134q0 32 -22 48.5t-57 16.5q-85 0 -85 -62q0 -16 6 -27t14 -17t24.5 -9.5t28.5 -5t36 -3t38 -3.5q67 -8 112.5 -48t45.5 -113q0 -92 -63.5 -138.5t-164.5 -46.5q-105 0 -164.5 49.5t-59.5 135.5h139q2 -33 23 -49t68 -16q39 0 61 18t22 42q0 8 -2 15t-7 12
t-10 9t-14.5 7t-16.5 5t-19.5 4t-20.5 3t-23 2.5t-23 2.5q-169 22 -169 164q0 96 61 144t162 48q105 0 159.5 -52t54.5 -136zM260 726l47 45h127v-10l-142 -129h-64l-141 129v10h128z" />
    <glyph glyph-name="uni0162" unicode="&#x162;" horiz-adv-x="472" 
d="M464 767v-123h-159v-644h-32l-10 -32q55 -3 74.5 -40t9.5 -82q-12 -50 -60.5 -74.5t-104.5 -15.5t-90 48l42 65q12 -12 34 -19.5t44 -3t29 25.5q6 24 -20 36t-69 14l24 78h-8v644h-160v123h456z" />
    <glyph glyph-name="uni0163" unicode="&#x163;" horiz-adv-x="334" 
d="M64 216v476l137 15v-115h100v-125h-100v-249q0 -57 19.5 -81.5t82.5 -16.5v-120q-41 -4 -72 -3l-11 -34q53 -4 72 -36t8 -76q-12 -49 -58 -73.5t-100 -16t-87 46.5l40 61q12 -12 33 -19t42.5 -2.5t27.5 24.5q5 19 -20 32t-65 15l31 98q-80 42 -80 199z" />
    <glyph glyph-name="Tcaron" unicode="&#x164;" horiz-adv-x="472" 
d="M464 767v-123h-159v-644h-137v644h-160v123h456zM237 906l47 45h127v-10l-142 -129h-64l-141 129v10h128z" />
    <glyph glyph-name="tcaron" unicode="&#x165;" horiz-adv-x="471" 
d="M64 216v476l137 15v-118h87v-122h-87v-249q0 -57 19.5 -81.5t82.5 -16.5v-120q-130 -14 -184.5 35.5t-54.5 180.5zM339 548l38 186h113l-53 -186h-98z" />
    <glyph glyph-name="Tbar" unicode="&#x166;" horiz-adv-x="472" 
d="M464 767v-123h-159v-227h92v-97h-92v-320h-137v320h-91v97h91v227h-160v123h456z" />
    <glyph glyph-name="tbar" unicode="&#x167;" horiz-adv-x="334" 
d="M2 275v97h62v320l137 15v-115h100v-125h-100v-95h97v-97h-97v-57q0 -57 19.5 -81.5t82.5 -16.5v-120q-130 -14 -184.5 35.5t-54.5 180.5v59h-62z" />
    <glyph glyph-name="Utilde" unicode="&#x168;" horiz-adv-x="637" 
d="M433 235v534h138v-541q0 -117 -67.5 -176t-191.5 -59q-252 0 -252 235v541h138v-534q0 -120 114 -120q60 0 90.5 32t30.5 88zM232 831l-79 39q15 48 57.5 72.5t89.5 3.5l47 -22q31 -12 45 24l82 -32q-14 -52 -51.5 -80t-89.5 -8l-53 24q-6 7 -22.5 2.5t-25.5 -23.5z" />
    <glyph glyph-name="utilde" unicode="&#x169;" horiz-adv-x="596" 
d="M526 591v-590h-122l-7 60q-54 -64 -139 -64q-83 -1 -137.5 52.5t-54.5 177.5v364h136v-363q0 -107 89 -107q95 0 95 102v368h140zM222 653l-78 39q15 48 57 73t89 5l48 -23q30 -13 44 24l82 -32q-14 -52 -51.5 -80.5t-89.5 -8.5l-52 24q-7 7 -23.5 3t-25.5 -24z" />
    <glyph glyph-name="Umacron" unicode="&#x16a;" horiz-adv-x="637" 
d="M433 235v534h138v-541q0 -117 -67.5 -176t-191.5 -59q-252 0 -252 235v541h138v-534q0 -120 114 -120q60 0 90.5 32t30.5 88zM184 938h258v-107h-258v107z" />
    <glyph glyph-name="umacron" unicode="&#x16b;" horiz-adv-x="596" 
d="M526 591v-590h-122l-7 60q-54 -64 -139 -64q-83 -1 -137.5 52.5t-54.5 177.5v364h136v-363q0 -107 89 -107q95 0 95 102v368h140zM168 775h251v-107h-251v107z" />
    <glyph glyph-name="Ubreve" unicode="&#x16c;" horiz-adv-x="637" 
d="M433 235v534h138v-541q0 -117 -67.5 -176t-191.5 -59q-252 0 -252 235v541h138v-534q0 -120 114 -120q60 0 90.5 32t30.5 88zM167 952h103q0 -46 43 -46q42 0 42 46h104q-1 -134 -146 -134t-146 134z" />
    <glyph glyph-name="ubreve" unicode="&#x16d;" horiz-adv-x="596" 
d="M526 591v-590h-122l-7 60q-54 -64 -139 -64q-83 -1 -137.5 52.5t-54.5 177.5v364h136v-363q0 -107 89 -107q95 0 95 102v368h140zM152 770h103q0 -46 43 -46q42 0 42 46h104q-1 -134 -146 -134t-146 134z" />
    <glyph glyph-name="Uring" unicode="&#x16e;" horiz-adv-x="637" 
d="M433 235v534h138v-541q0 -117 -67.5 -176t-191.5 -59q-252 0 -252 235v541h138v-534q0 -120 114 -120q60 0 90.5 32t30.5 88zM201 878q0 47 34 74t82 27q50 0 83.5 -26.5t33.5 -73.5q0 -48 -34 -75.5t-84 -27.5t-83 27.5t-32 74.5zM317 915q-25 0 -36 -18.5t0 -37
t36 -18.5q28 0 39 18.5t-0.5 37t-38.5 18.5z" />
    <glyph glyph-name="uring" unicode="&#x16f;" horiz-adv-x="596" 
d="M526 591v-590h-122l-7 60q-54 -64 -139 -64q-83 -1 -137.5 52.5t-54.5 177.5v364h136v-363q0 -107 89 -107q95 0 95 102v368h140zM170 731q0 49 37 77.5t89 28.5q54 0 91 -28t37 -78q0 -49 -37.5 -77.5t-91.5 -28.5q-55 0 -90.5 28.5t-34.5 77.5zM296 769
q-28 0 -39.5 -19.5t0 -38.5t39.5 -19q30 0 42 19t-0.5 38.5t-41.5 19.5z" />
    <glyph glyph-name="Uhungarumlaut" unicode="&#x170;" horiz-adv-x="637" 
d="M433 235v534h138v-541q0 -117 -67.5 -176t-191.5 -59q-252 0 -252 235v541h138v-534q0 -120 114 -120q60 0 90.5 32t30.5 88zM158 828l67 114h125v-2l-82 -112h-110zM327 827l67 115h125v-2l-81 -113h-111z" />
    <glyph glyph-name="uhungarumlaut" unicode="&#x171;" horiz-adv-x="596" 
d="M526 591v-590h-122l-7 60q-54 -64 -139 -64q-83 -1 -137.5 52.5t-54.5 177.5v364h136v-363q0 -107 89 -107q95 0 95 102v368h140zM140 655l68 120h125v-2l-83 -118h-110zM310 654l68 121h125v-2l-82 -119h-111z" />
    <glyph glyph-name="Uogonek" unicode="&#x172;" horiz-adv-x="637" 
d="M433 235v534h138v-541q0 -124 -78 -185l2 1q-31 -25 -46.5 -50.5t-13.5 -41.5t9 -28q18 -21 62 -9l5 -98q-194 -27 -194 93q0 48 43 86q-24 -3 -48 -3q-252 0 -252 235v541h138v-534q0 -120 114 -120q60 0 90.5 32t30.5 88z" />
    <glyph glyph-name="uogonek" unicode="&#x173;" horiz-adv-x="596" 
d="M526 591v-585q-27 -11 -41 -28t-12 -30.5t8 -23.5q18 -21 62 -9l5 -98q-194 -27 -194 93q0 53 50 91l-7 60q-54 -64 -139 -64q-83 -1 -137.5 52.5t-54.5 177.5v364h136v-363q0 -107 89 -107q95 0 95 102v368h140z" />
    <glyph glyph-name="Wcircumflex" unicode="&#x174;" horiz-adv-x="926" 
d="M461 415l-103 -416h-145l-204 771h142l76 -266l55 -314l126 555h106l136 -555l45 314l76 266h142l-193 -771h-146zM463 861l-47 -45h-127v10l142 129h64l141 -129v-10h-128z" />
    <glyph glyph-name="wcircumflex" unicode="&#x175;" horiz-adv-x="774" 
d="M338 590h102l45 -189q26 -111 44 -236q21 154 44 248l51 177h141l-171 -591h-131l-35 129l-41 208l-41 -210l-35 -127h-130l-173 591h142l52 -177q21 -85 43 -248q2 10 6.5 52.5t12 86t20.5 99.5q7 29 27 96.5t27 90.5zM387 685l-47 -45h-127v10l142 129h64l141 -129v-10
h-128z" />
    <glyph glyph-name="Ycircumflex" unicode="&#x176;" horiz-adv-x="522" 
d="M376 770h149l-194 -448v-323h-137v323l-196 448h149l60 -142l56 -165l56 169zM266 866l-47 -45h-127v10l142 129h64l141 -129v-10h-128z" />
    <glyph glyph-name="ycircumflex" unicode="&#x177;" horiz-adv-x="510" 
d="M355 590h143l-175 -583h1l-32 -114q-19 -65 -51.5 -95.5t-77 -29.5t-101.5 23l21 101q2 -1 12.5 -3.5t14 -3t12 -1.5t12.5 0t10.5 3t10 6.5t7.5 11t7 16.5l23 83l-177 586h143l53 -177q28 -111 46 -248q22 149 46 248zM260 687l-47 -45h-127v10l142 129h64l141 -129v-10
h-128z" />
    <glyph glyph-name="Ydieresis" unicode="&#x178;" horiz-adv-x="522" 
d="M376 770h149l-194 -448v-323h-137v323l-196 448h149l60 -142l56 -165l56 169zM75 896q0 43 36.5 61.5t73.5 1t37 -62.5q0 -42 -37 -60t-73.5 -1t-36.5 61zM296 896q0 43 36.5 61.5t73.5 1t37 -62.5q0 -31 -23 -49.5t-50.5 -19.5t-50.5 17.5t-23 51.5z" />
    <glyph glyph-name="Zacute" unicode="&#x179;" horiz-adv-x="527" 
d="M56 770h458l-296 -648h279v-122h-483l301 647h-259v123zM396 956l-76 -136h-119l57 136h138z" />
    <glyph glyph-name="zacute" unicode="&#x17a;" horiz-adv-x="510" 
d="M31 0v16l255 453h-229v120h433v-17l-254 -444h254v-128h-459zM397 778l-76 -136h-119l57 136h138z" />
    <glyph glyph-name="Zdotaccent" unicode="&#x17b;" horiz-adv-x="527" 
d="M56 770h458l-296 -648h279v-122h-483l301 647h-259v123zM217 901q0 44 36.5 62.5t73 0.5t36.5 -63q0 -32 -23 -51t-50 -20t-50 18t-23 53z" />
    <glyph glyph-name="zdotaccent" unicode="&#x17c;" horiz-adv-x="510" 
d="M31 0v16l255 453h-229v120h433v-17l-254 -444h254v-128h-459zM208 719q0 44 36.5 62.5t73 0.5t36.5 -63q0 -32 -23 -51t-50 -20t-50 18t-23 53z" />
    <glyph glyph-name="Zcaron" unicode="&#x17d;" horiz-adv-x="527" 
d="M56 770h458l-296 -648h279v-122h-483l301 647h-259v123zM294 917l47 45h127v-10l-142 -129h-64l-141 129v10h128z" />
    <glyph glyph-name="zcaron" unicode="&#x17e;" horiz-adv-x="510" 
d="M31 0v16l255 453h-229v120h433v-17l-254 -444h254v-128h-459zM283 727l47 45h127v-10l-142 -129h-64l-141 129v10h128z" />
    <glyph glyph-name="longs" unicode="&#x17f;" horiz-adv-x="351" 
d="M339 780v-121q-67 11 -105 -14.5t-38 -76.5v-569h-137v571q0 106 74 166.5t206 43.5z" />
    <glyph glyph-name="florin" unicode="&#x192;" horiz-adv-x="413" 
d="M138 552v22q0 116 63 165t194 41v-122q-67 8 -93.5 -13t-26.5 -73v-20h113v-126h-113v-412q0 -118 -58 -173.5t-187 -47.5v118q66 0 87 20.5t21 81.5v414h-94v125h94z" />
    <glyph glyph-name="Aringacute" unicode="&#x1fa;" horiz-adv-x="578" 
d="M344 898h-113l65 88h131zM168 767q0 55 35 84t86 29q52 0 87 -28.5t35 -83.5q0 -53 -44 -86l202 -682h-142l-39 136h-197l-40 -136h-142l203 680q-45 34 -44 87zM225 271h128l-64 240zM289 803q-27 0 -38 -18t0 -36t38 -18q29 0 40 18t-1 36t-39 18z" />
    <glyph glyph-name="aringacute" unicode="&#x1fb;" horiz-adv-x="543" 
d="M273 918h125l-86 -84h-102v3zM355 235q-189 19 -189 -65q0 -52 81 -52q96 0 108 117zM185 387h-131q-7 107 47.5 156.5t163.5 49.5q114 0 167.5 -57t53.5 -173v-363h-112l-13 68q-55 -76 -155 -76q-76 0 -123 43t-47 124q0 202 319 180q0 70 -18.5 101t-70.5 31
q-45 0 -63.5 -18.5t-17.5 -65.5zM146 711q0 47 34 73.5t83 26.5q50 0 84 -26t34 -73q0 -46 -34.5 -73t-84.5 -27q-51 0 -84 26.5t-32 72.5zM263 748q-26 0 -36.5 -18t0 -36.5t36.5 -18.5q21 0 32.5 11.5t11 25t-12 25t-31.5 11.5z" />
    <glyph glyph-name="AEacute" unicode="&#x1fc;" horiz-adv-x="742" 
d="M553 937l-76 -125h-119l57 125h138zM267 772h437v-120h-219v-199h198v-124h-198v-203h233v-126h-368v145h-147l-49 -145h-151zM237 271h113v365z" />
    <glyph glyph-name="aeacute" unicode="&#x1fd;" horiz-adv-x="851" 
d="M545 778l-76 -136h-119l57 136h138zM664 181h135q0 -189 -228 -189q-124 0 -166 91q-40 -57 -84 -74t-115 -17q-76 0 -123 43t-47 124q0 202 319 180v5q-1 67 -20 97t-69 30q-45 0 -62.5 -17.5t-16.5 -64.5h-131q-7 107 46.5 155.5t162.5 48.5t157 -81q48 80 155 80
q222 0 222 -230v-117h-320v-15q0 -67 24 -92t70 -25q91 0 91 68zM581 473q-57 0 -79.5 -29t-22.5 -86h192q0 52 -18.5 83.5t-71.5 31.5zM355 235q-189 19 -189 -65q0 -52 81 -52q96 0 108 117z" />
    <glyph glyph-name="Oslashacute" unicode="&#x1fe;" horiz-adv-x="639" 
d="M439 958l-77 -123h-120l58 123h139zM316 -7q-46 0 -83 6l-22 -61h-114l36 99q-74 54 -74 186v326q0 123 59 176.5t198 53.5q46 0 85 -6l25 69h115l-39 -106q77 -52 77 -187v-326q0 -119 -63 -174.5t-200 -55.5zM316 115q71 0 98 28t27 87v312q0 4 -0.5 12t-0.5 11
l-163 -447q17 -3 39 -3zM197 230v-17l160 441q-18 3 -41 3q-70 0 -94.5 -28.5t-24.5 -86.5v-312z" />
    <glyph glyph-name="oslashacute" unicode="&#x1ff;" horiz-adv-x="559" 
d="M400 776l-77 -123h-120l58 123h139zM279 -10q-42 0 -79 8l-26 -58h-107l45 100q-62 55 -62 180v142q0 116 56.5 173t172.5 57q41 0 79 -8l28 63h108l-48 -106q62 -55 62 -179v-142q0 -119 -56 -174.5t-173 -55.5zM188 227v-18l117 258q-12 3 -26 3q-51 0 -71 -28.5
t-20 -86.5v-128zM279 112q51 0 71 28.5t20 86.5v128q0 12 -1 17l-116 -258q16 -2 26 -2z" />
    <glyph glyph-name="Scommaaccent" unicode="&#x218;" horiz-adv-x="604" 
d="M403 569q-3 47 -28 65.5t-77 18.5q-58 0 -82.5 -21.5t-24.5 -75.5q0 -20 4 -35t14.5 -25.5t20.5 -16.5t30.5 -11t34.5 -7t43 -5.5t47 -6.5q38 -6 65.5 -16.5t54 -32.5t40.5 -61t14 -94q0 -134 -61.5 -193.5t-200.5 -59.5q-253 0 -253 217h139q2 -47 28 -69t89 -22
t92 28.5t29 93.5q0 19 -5.5 33.5t-18.5 24.5t-24 16.5t-33.5 11.5t-34.5 7t-38.5 5t-35.5 4q-179 23 -179 213q0 107 63.5 163t182.5 56q111 0 173 -47.5t71 -157.5h-139zM240 -252l-46 63q16 10 26 20t15.5 18t7.5 21.5t2 21.5t-0.5 27t-0.5 30h130q8 -80 -24.5 -128.5
t-109.5 -72.5z" />
    <glyph glyph-name="scommaaccent" unicode="&#x219;" horiz-adv-x="521" 
d="M483 405h-134q0 32 -22 48.5t-57 16.5q-85 0 -85 -62q0 -16 6 -27t14 -17t24.5 -9.5t28.5 -5t36 -3t38 -3.5q67 -8 112.5 -48t45.5 -113q0 -92 -63.5 -138.5t-164.5 -46.5q-105 0 -164.5 49.5t-59.5 135.5h139q2 -33 23 -49t68 -16q39 0 61 18t22 42q0 8 -2 15t-7 12
t-10 9t-14.5 7t-16.5 5t-19.5 4t-20.5 3t-23 2.5t-23 2.5q-169 22 -169 164q0 96 61 144t162 48q105 0 159.5 -52t54.5 -136zM212 -252l-46 63q16 10 26 20t15.5 18t7.5 21.5t2 21.5t-0.5 27t-0.5 30h130q8 -80 -24.5 -128.5t-109.5 -72.5z" />
    <glyph glyph-name="uni021A" unicode="&#x21a;" horiz-adv-x="472" 
d="M464 767v-123h-159v-644h-137v644h-160v123h456zM167 -252l-46 63q16 10 26 20t15.5 18t7.5 21.5t2 21.5t-0.5 27t-0.5 30h130q8 -80 -24.5 -128.5t-109.5 -72.5z" />
    <glyph glyph-name="uni021B" unicode="&#x21b;" horiz-adv-x="334" 
d="M64 216v476l137 15v-115h100v-125h-100v-249q0 -57 19.5 -81.5t82.5 -16.5v-120q-130 -14 -184.5 35.5t-54.5 180.5zM137 -252l-46 63q16 10 26 20t15.5 18t7.5 21.5t2 21.5t-0.5 27t-0.5 30h130q8 -80 -24.5 -128.5t-109.5 -72.5z" />
    <glyph glyph-name="dotlessj" unicode="&#x237;" horiz-adv-x="286" 
d="M218 582v-550q0 -129 -47.5 -174.5t-169.5 -45.5v117q47 0 63.5 17.5t16.5 82.5v553h137z" />
    <glyph glyph-name="circumflex" unicode="&#x2c6;" horiz-adv-x="355" 
d="M186 678l-47 -45h-127v10l142 129h64l141 -129v-10h-128z" />
    <glyph glyph-name="caron" unicode="&#x2c7;" horiz-adv-x="383" 
d="M184 726l47 45h127v-10l-142 -129h-64l-141 129v10h128z" />
    <glyph glyph-name="breve" unicode="&#x2d8;" horiz-adv-x="328" 
d="M20 773h103q0 -46 43 -46q42 0 42 46h104q-1 -134 -146 -134t-146 134z" />
    <glyph glyph-name="dotaccent" unicode="&#x2d9;" horiz-adv-x="237" 
d="M40 718q0 44 36.5 62.5t73 0.5t36.5 -63q0 -32 -23 -51t-50 -20t-50 18t-23 53z" />
    <glyph glyph-name="ring" unicode="&#x2da;" horiz-adv-x="320" 
d="M42 673q0 55 35.5 86.5t85.5 31.5q52 0 87 -31t35 -86t-35.5 -87t-87.5 -32t-86.5 31.5t-33.5 86.5zM163 716q-27 0 -38 -21.5t0 -43t38 -21.5q29 0 40 21.5t-1 43t-39 21.5z" />
    <glyph glyph-name="ogonek" unicode="&#x2db;" horiz-adv-x="403" 
d="M206 25h95q-40 -25 -52.5 -55t2.5 -43q18 -21 62 -9l5 -98q-194 -27 -194 93q0 69 82 112z" />
    <glyph glyph-name="tilde" unicode="&#x2dc;" horiz-adv-x="412" 
d="M121 642l-81 42q16 52 59 78.5t92 4.5l49 -24q30 -14 46 26l84 -35q-14 -56 -52.5 -86.5t-92.5 -8.5l-54 26q-7 8 -24 3t-26 -26z" />
    <glyph glyph-name="hungarumlaut" unicode="&#x2dd;" horiz-adv-x="369" 
d="M43 661l65 114h120v-2l-79 -112h-106zM206 660l65 115h120v-2l-78 -113h-107z" />
    <glyph glyph-name="mu" unicode="&#x3bc;" horiz-adv-x="524" 
d="M36 -203v784h141v-363q0 -103 87 -103q41 0 61 26t20 88v351h140v-580h-116l-11 40q-27 -50 -91 -52.5t-95 44.5v-235h-136z" />
    <glyph glyph-name="Wgrave" unicode="&#x1e80;" horiz-adv-x="926" 
d="M461 415l-103 -416h-145l-204 771h142l76 -266l55 -314l126 555h106l136 -555l45 314l76 266h142l-193 -771h-146zM403 800l-76 136h138l57 -136h-119z" />
    <glyph glyph-name="wgrave" unicode="&#x1e81;" horiz-adv-x="774" 
d="M337 644l-76 136h138l57 -136h-119zM338 590h102l45 -189q26 -111 44 -236q21 154 44 248l51 177h141l-171 -591h-131l-35 129l-41 208l-41 -210l-35 -127h-130l-173 591h142l52 -177q21 -85 43 -248q2 10 6.5 52.5t12 86t20.5 99.5q7 29 27 96.5t27 90.5z" />
    <glyph glyph-name="Wacute" unicode="&#x1e82;" horiz-adv-x="926" 
d="M461 415l-103 -416h-145l-204 771h142l76 -266l55 -314l126 555h106l136 -555l45 314l76 266h142l-193 -771h-146zM594 937l-76 -136h-119l57 136h138z" />
    <glyph glyph-name="wacute" unicode="&#x1e83;" horiz-adv-x="774" 
d="M338 590h102l45 -189q26 -111 44 -236q21 154 44 248l51 177h141l-171 -591h-131l-35 129l-41 208l-41 -210l-35 -127h-130l-173 591h142l52 -177q21 -85 43 -248q2 10 6.5 52.5t12 86t20.5 99.5q7 29 27 96.5t27 90.5zM523 782l-76 -136h-119l57 136h138z" />
    <glyph glyph-name="Wdieresis" unicode="&#x1e84;" horiz-adv-x="926" 
d="M257 878q0 43 36.5 61.5t73.5 1t37 -62.5q0 -31 -23 -49.5t-50.5 -19.5t-50.5 17.5t-23 51.5zM514 878q0 32 23 51t50.5 19.5t50.5 -18t23 -52.5q0 -31 -23 -49.5t-50.5 -19.5t-50.5 17.5t-23 51.5zM461 415l-103 -416h-145l-204 771h142l76 -266l55 -314l126 555h106
l136 -555l45 314l76 266h142l-193 -771h-146z" />
    <glyph glyph-name="wdieresis" unicode="&#x1e85;" horiz-adv-x="774" 
d="M187 722q0 43 36.5 61.5t73.5 1t37 -62.5q0 -31 -23 -49.5t-50.5 -19.5t-50.5 17.5t-23 51.5zM442 722q0 32 23 51t50.5 19.5t50.5 -18t23 -52.5q0 -31 -23 -49.5t-50.5 -19.5t-50.5 17.5t-23 51.5zM338 590h102l45 -189q26 -111 44 -236q21 154 44 248l51 177h141
l-171 -591h-131l-35 129l-41 208l-41 -210l-35 -127h-130l-173 591h142l52 -177q21 -85 43 -248q2 10 6.5 52.5t12 86t20.5 99.5q7 29 27 96.5t27 90.5z" />
    <glyph glyph-name="Ygrave" unicode="&#x1ef2;" horiz-adv-x="522" 
d="M376 770h149l-194 -448v-323h-137v323l-196 448h149l60 -142l56 -165l56 169zM211 807l-76 136h138l57 -136h-119z" />
    <glyph glyph-name="ygrave" unicode="&#x1ef3;" horiz-adv-x="510" 
d="M355 590h143l-175 -583h1l-32 -114q-19 -65 -51.5 -95.5t-77 -29.5t-101.5 23l21 101q2 -1 12.5 -3.5t14 -3t12 -1.5t12.5 0t10.5 3t10 6.5t7.5 11t7 16.5l23 83l-177 586h143l53 -177q28 -111 46 -248q22 149 46 248zM200 641l-76 136h138l57 -136h-119z" />
    <glyph glyph-name="endash" unicode="&#x2013;" horiz-adv-x="613" 
d="M536 397v-115h-459v115h459z" />
    <glyph glyph-name="emdash" unicode="&#x2014;" horiz-adv-x="712" 
d="M635 397v-115h-558v115h558z" />
    <glyph glyph-name="quoteleft" unicode="&#x2018;" horiz-adv-x="293" 
d="M241 772l-46 -191h-136l64 191h118z" />
    <glyph glyph-name="quoteright" unicode="&#x2019;" horiz-adv-x="287" 
d="M61 580l46 191h136l-64 -191h-118z" />
    <glyph glyph-name="quotesinglbase" unicode="&#x201a;" horiz-adv-x="196" 
d="M39 -164l-41 69q17 12 26.5 23.5t13.5 29t5.5 25t0.5 36t-1 37.5h116q7 -87 -22 -140.5t-98 -79.5z" />
    <glyph glyph-name="quotedblleft" unicode="&#x201c;" horiz-adv-x="441" 
d="M389 771l-43 -190h-128l60 190h111zM216 771l-43 -190h-128l61 190h110z" />
    <glyph glyph-name="quotedblright" unicode="&#x201d;" horiz-adv-x="451" 
d="M63 581l43 190h128l-60 -190h-111zM236 581l43 190h128l-61 -190h-110z" />
    <glyph glyph-name="quotedblbase" unicode="&#x201e;" horiz-adv-x="353" 
d="M39 -164l-41 69q17 12 26.5 23.5t13.5 29t5.5 25t0.5 36t-1 37.5h116q7 -87 -22 -140.5t-98 -79.5zM217 -164l-41 69q17 12 26.5 23.5t13.5 29t5.5 25t0.5 36t-1 37.5h116q7 -87 -22 -140.5t-98 -79.5z" />
    <glyph glyph-name="dagger" unicode="&#x2020;" horiz-adv-x="515" 
d="M176 385v239h139v-239h167v-138h-167v-413h-139v413h-150v138h150z" />
    <glyph glyph-name="daggerdbl" unicode="&#x2021;" horiz-adv-x="539" 
d="M487 285v-136h-158v-319h-139v319h-159v136h159v99h-159v136h159v249h36h103v-249h158v-136h-158v-99h158z" />
    <glyph glyph-name="bullet" unicode="&#x2022;" horiz-adv-x="393" 
d="M197 229q-46 0 -76 29t-30 75t30 75t76 29q45 0 74.5 -29t29.5 -76q0 -46 -29.5 -74.5t-74.5 -28.5z" />
    <glyph glyph-name="ellipsis" unicode="&#x2026;" horiz-adv-x="722" 
d="M32 72q0 36 24 56.5t53.5 20.5t53.5 -20.5t24 -56.5q0 -35 -24 -55.5t-53.5 -20.5t-53.5 20t-24 56zM273 72q0 48 38.5 67.5t77.5 0t39 -67.5q0 -35 -24 -55.5t-53.5 -20.5t-53.5 20t-24 56zM512 72q0 36 24 56.5t53.5 20.5t53.5 -20.5t24 -56.5q0 -35 -24 -55.5
t-53.5 -20.5t-53.5 20t-24 56z" />
    <glyph glyph-name="perthousand" unicode="&#x2030;" horiz-adv-x="1163" 
d="M639 0q-75 0 -110.5 36t-35.5 112v86q0 148 146 148q76 0 112 -36t36 -112v-86q0 -76 -36 -112t-112 -36zM639 107q25 0 34.5 13.5t9.5 42.5v57q0 29 -9.5 42t-34.5 13q-24 0 -33.5 -13t-9.5 -42v-57q0 -29 9.5 -42.5t33.5 -13.5zM176 395q-75 0 -110.5 36t-35.5 112v86
q0 148 146 148q76 0 112 -36t36 -112v-86q0 -76 -36 -112t-112 -36zM176 502q25 0 34.5 13.5t9.5 42.5v57q0 29 -9.5 42t-34.5 13q-24 0 -33.5 -13t-9.5 -42v-57q0 -29 9.5 -42.5t33.5 -13.5zM983 0q-75 0 -110.5 36t-35.5 112v86q0 148 146 148q76 0 112 -36t36 -112v-86
q0 -76 -36 -112t-112 -36zM983 107q25 0 34.5 13.5t9.5 42.5v57q0 29 -9.5 42t-34.5 13q-24 0 -33.5 -13t-9.5 -42v-57q0 -29 9.5 -42.5t33.5 -13.5zM446 784l135 -13l-224 -785l-134 14z" />
    <glyph glyph-name="guilsinglleft" unicode="&#x2039;" horiz-adv-x="378" 
d="M49 332l141 225h137l-140 -226l140 -225h-137z" />
    <glyph glyph-name="guilsinglright" unicode="&#x203a;" horiz-adv-x="380" 
d="M190 557l141 -225l-141 -226h-137l140 225l-140 226h137z" />
    <glyph glyph-name="fraction" unicode="&#x2044;" horiz-adv-x="126" 
d="M-170 -3l344 778h126l-344 -778h-126z" />
    <glyph glyph-name="Euro" unicode="&#x20ac;" horiz-adv-x="528" 
d="M450 143l59 -109q-63 -37 -128 -37h-60q-97 0 -162.5 54.5t-65.5 147.5v78h-66v79h66v51h-66v79h66v87q0 84 69 141.5t159 57.5h60q71 0 123 -32l-62 -109q-30 13 -42.5 14.5t-78.5 1.5q-91 0 -91 -91v-70h200v-79h-200v-51h200v-79h-200v-55q0 -40 26.5 -69.5
t64.5 -29.5h60q40 0 69 20z" />
    <glyph glyph-name="trademark" unicode="&#x2122;" horiz-adv-x="531" 
d="M214 773v-67h-60v-256h-69v256h-60v67h189zM241 449v325h72l56 -107l50 107h76v-325h-69v111l1 59l-46 -115h-24l-48 114q1 -11 1 -58v-111h-69z" />
    <glyph glyph-name="fi" unicode="&#xfb01;" horiz-adv-x="566" 
d="M501 574v-575h-137v454h-168v-454h-137v580q0 101 62.5 156.5t184.5 46.5l1 -118q-60 4 -85.5 -15t-25.5 -72v-3h305zM356 709q0 48 38.5 67.5t77.5 0t39 -67.5q0 -35 -24 -55.5t-53.5 -20.5t-53.5 20t-24 56z" />
    <glyph glyph-name="fl" unicode="&#xfb02;" horiz-adv-x="606" 
d="M317 780v-121q-121 20 -121 -91v-31h110v-126h-110v-412h-137v571q0 108 64 167t194 43zM372 216v555h137v-553q0 -50 13.5 -68t55.5 -18v-132q-120 0 -163 45t-43 171z" />
    <glyph glyph-name="a.alt" horiz-adv-x="563" 
d="M248 -3q-92 0 -144 55t-52 173v137q0 230 230 230q117 0 173.5 -56t56.5 -174v-362h-115l-10 65q-37 -68 -139 -68zM372 355q0 59 -19.5 87t-70.5 28t-70.5 -28t-19.5 -87v-123q0 -61 22.5 -87t65.5 -26q92 0 92 118v118z" />
    <glyph glyph-name="aacute.alt" horiz-adv-x="563" 
d="M248 -3q-92 0 -144 55t-52 173v137q0 230 230 230q117 0 173.5 -56t56.5 -174v-362h-115l-10 65q-37 -68 -139 -68zM372 355q0 59 -19.5 87t-70.5 28t-70.5 -28t-19.5 -87v-123q0 -61 22.5 -87t65.5 -26q92 0 92 118v118zM417 781l-76 -136h-119l57 136h138z" />
    <glyph glyph-name="abreve.alt" horiz-adv-x="563" 
d="M248 -3q-92 0 -144 55t-52 173v137q0 230 230 230q117 0 173.5 -56t56.5 -174v-362h-115l-10 65q-37 -68 -139 -68zM372 355q0 59 -19.5 87t-70.5 28t-70.5 -28t-19.5 -87v-123q0 -61 22.5 -87t65.5 -26q92 0 92 118v118zM143 773h103q0 -46 43 -46q42 0 42 46h104
q-1 -134 -146 -134t-146 134z" />
    <glyph glyph-name="acircumflex.alt" horiz-adv-x="563" 
d="M248 -3q-92 0 -144 55t-52 173v137q0 230 230 230q117 0 173.5 -56t56.5 -174v-362h-115l-10 65q-37 -68 -139 -68zM372 355q0 59 -19.5 87t-70.5 28t-70.5 -28t-19.5 -87v-123q0 -61 22.5 -87t65.5 -26q92 0 92 118v118zM294 678l-47 -45h-127v10l142 129h64l141 -129
v-10h-128z" />
    <glyph glyph-name="adieresis.alt" horiz-adv-x="563" 
d="M248 -3q-92 0 -144 55t-52 173v137q0 230 230 230q117 0 173.5 -56t56.5 -174v-362h-115l-10 65q-37 -68 -139 -68zM372 355q0 59 -19.5 87t-70.5 28t-70.5 -28t-19.5 -87v-123q0 -61 22.5 -87t65.5 -26q92 0 92 118v118zM107 713q0 33 24 52.5t52.5 20.5t52.5 -18.5
t24 -54.5q0 -33 -24 -52t-52.5 -20t-52.5 18t-24 54zM325 713q0 33 24 52.5t52.5 20.5t52.5 -18.5t24 -54.5q0 -33 -24 -52t-52.5 -20t-52.5 18t-24 54z" />
    <glyph glyph-name="agrave.alt" horiz-adv-x="563" 
d="M248 -3q-92 0 -144 55t-52 173v137q0 230 230 230q117 0 173.5 -56t56.5 -174v-362h-115l-10 65q-37 -68 -139 -68zM372 355q0 59 -19.5 87t-70.5 28t-70.5 -28t-19.5 -87v-123q0 -61 22.5 -87t65.5 -26q92 0 92 118v118zM237 643l-76 136h138l57 -136h-119z" />
    <glyph glyph-name="amacron.alt" horiz-adv-x="563" 
d="M248 -3q-92 0 -144 55t-52 173v137q0 230 230 230q117 0 173.5 -56t56.5 -174v-362h-115l-10 65q-37 -68 -139 -68zM372 355q0 59 -19.5 87t-70.5 28t-70.5 -28t-19.5 -87v-123q0 -61 22.5 -87t65.5 -26q92 0 92 118v118zM153 776h261v-116h-261v116z" />
    <glyph glyph-name="aogonek.alt" horiz-adv-x="565" 
d="M248 -3q-92 0 -144 55t-52 173v137q0 230 230 230q117 0 173.5 -56t56.5 -174v-362q-29 -13 -43.5 -31.5t-13.5 -32.5t8 -25q18 -21 62 -9l5 -98q-194 -27 -194 93q0 63 66 103l-15 65q-37 -68 -139 -68zM372 355q0 59 -19.5 87t-70.5 28t-70.5 -28t-19.5 -87v-123
q0 -61 22.5 -87t65.5 -26q92 0 92 118v118z" />
    <glyph glyph-name="aring.alt" horiz-adv-x="563" 
d="M248 -3q-92 0 -144 55t-52 173v137q0 230 230 230q117 0 173.5 -56t56.5 -174v-362h-115l-10 65q-37 -68 -139 -68zM372 355q0 59 -19.5 87t-70.5 28t-70.5 -28t-19.5 -87v-123q0 -61 22.5 -87t65.5 -26q92 0 92 118v118zM169 734q0 47 35.5 74.5t85.5 27.5q52 0 87 -27
t35 -75t-35.5 -75.5t-87.5 -27.5t-86.5 27.5t-33.5 75.5zM290 771q-27 0 -38 -18.5t0 -37.5t38 -19q29 0 40 19t-1 37.5t-39 18.5z" />
    <glyph glyph-name="aringacute.alt" horiz-adv-x="563" 
d="M280 914h125l-66 -91h-103v3zM177 711v-2q0 -45 31.5 -71t79.5 -26q46 0 78.5 26.5t32.5 71.5q0 44 -33 69t-78 25q-46 0 -78.5 -24.5t-32.5 -68.5zM287 738h-1q22 0 31.5 -15t1 -29.5t-31.5 -14.5q-22 0 -31 14.5t0 29.5t31 15zM248 -3q-92 0 -144 55t-52 173v137
q0 230 230 230q117 0 173.5 -56t56.5 -174v-362h-115l-10 65q-37 -68 -139 -68zM372 355q0 59 -19.5 87t-70.5 28t-70.5 -28t-19.5 -87v-123q0 -61 22.5 -87t65.5 -26q92 0 92 118v118z" />
    <glyph glyph-name="atilde.alt" horiz-adv-x="563" 
d="M248 -3q-92 0 -144 55t-52 173v137q0 230 230 230q117 0 173.5 -56t56.5 -174v-362h-115l-10 65q-37 -68 -139 -68zM372 355q0 59 -19.5 87t-70.5 28t-70.5 -28t-19.5 -87v-123q0 -61 22.5 -87t65.5 -26q92 0 92 118v118zM205 644l-79 41q16 52 58 78.5t90 4.5l48 -24
q30 -14 45 26l82 -35q-13 -55 -51 -85.5t-91 -8.5l-53 25q-6 8 -23 3t-26 -25z" />
    <glyph glyph-name="g.alt" horiz-adv-x="584" 
d="M550 599l28 -131q-50 -10 -81 -32q7 -39 7 -75v-64q0 -105 -40 -153q54 -48 56 -127q1 -29 -3 -56t-19.5 -57.5t-41.5 -52.5t-73.5 -37t-111.5 -15q-77 0 -136 34t-96 87l78 93q70 -84 157 -84q55 0 80.5 21.5t23.5 66.5q-1 22 -24 57q-32 -7 -79 -7q-117 0 -173 55.5
t-56 174.5v64q0 116 56.5 173t172.5 57q95 0 150 -37q49 38 125 45zM275 189q51 0 71 28.5t20 86.5v50q0 58 -20 86.5t-71 28.5t-71 -28.5t-20 -86.5v-50q0 -58 20 -86.5t71 -28.5z" />
    <glyph glyph-name="gbreve.alt" horiz-adv-x="585" 
d="M550 599l28 -131q-50 -10 -81 -32q7 -39 7 -75v-64q0 -105 -40 -153q54 -48 56 -127q1 -29 -3 -56t-19.5 -57.5t-41.5 -52.5t-73.5 -37t-111.5 -15q-77 0 -136 34t-96 87l78 93q70 -84 157 -84q55 0 80.5 21.5t23.5 66.5q-1 22 -24 57q-32 -7 -79 -7q-117 0 -173 55.5
t-56 174.5v64q0 116 56.5 173t172.5 57q95 0 150 -37q49 38 125 45zM275 189q51 0 71 28.5t20 86.5v50q0 58 -20 86.5t-71 28.5t-71 -28.5t-20 -86.5v-50q0 -58 20 -86.5t71 -28.5zM133 779h103q0 -46 43 -46q42 0 42 46h104q-1 -134 -146 -134t-146 134z" />
    <glyph glyph-name="gcircumflex.alt" horiz-adv-x="585" 
d="M550 599l28 -131q-50 -10 -81 -32q7 -39 7 -75v-64q0 -105 -40 -153q54 -48 56 -127q1 -29 -3 -56t-19.5 -57.5t-41.5 -52.5t-73.5 -37t-111.5 -15q-77 0 -136 34t-96 87l78 93q70 -84 157 -84q55 0 80.5 21.5t23.5 66.5q-1 22 -24 57q-32 -7 -79 -7q-117 0 -173 55.5
t-56 174.5v64q0 116 56.5 173t172.5 57q95 0 150 -37q49 38 125 45zM275 189q51 0 71 28.5t20 86.5v50q0 58 -20 86.5t-71 28.5t-71 -28.5t-20 -86.5v-50q0 -58 20 -86.5t71 -28.5zM283 682l-47 -45h-127v10l142 129h64l141 -129v-10h-128z" />
    <glyph glyph-name="gcommaaccent.alt" horiz-adv-x="585" 
d="M330 821l69 -46q-10 -9 -18 -17.5t-13 -14.5t-8.5 -16t-5.5 -13.5t-3 -16.5t-1 -16v-19.5v-20.5h-134q0 74 26.5 118.5t87.5 61.5zM550 599l28 -131q-50 -10 -81 -32q7 -39 7 -75v-64q0 -105 -40 -153q54 -48 56 -127q1 -29 -3 -56t-19.5 -57.5t-41.5 -52.5t-73.5 -37
t-111.5 -15q-77 0 -136 34t-96 87l78 93q70 -84 157 -84q55 0 80.5 21.5t23.5 66.5q-1 22 -24 57q-32 -7 -79 -7q-117 0 -173 55.5t-56 174.5v64q0 116 56.5 173t172.5 57q95 0 150 -37q49 38 125 45zM275 189q51 0 71 28.5t20 86.5v50q0 58 -20 86.5t-71 28.5t-71 -28.5
t-20 -86.5v-50q0 -58 20 -86.5t71 -28.5z" />
    <glyph glyph-name="gdotaccent.alt" horiz-adv-x="585" 
d="M202 719q0 47 40 66.5t79.5 0t39.5 -66.5t-39.5 -66.5t-79.5 0t-40 66.5zM550 599l28 -131q-50 -10 -81 -32q7 -39 7 -75v-64q0 -105 -40 -153q54 -48 56 -127q1 -29 -3 -56t-19.5 -57.5t-41.5 -52.5t-73.5 -37t-111.5 -15q-77 0 -136 34t-96 87l78 93q70 -84 157 -84
q55 0 80.5 21.5t23.5 66.5q-1 22 -24 57q-32 -7 -79 -7q-117 0 -173 55.5t-56 174.5v64q0 116 56.5 173t172.5 57q95 0 150 -37q49 38 125 45zM275 189q51 0 71 28.5t20 86.5v50q0 58 -20 86.5t-71 28.5t-71 -28.5t-20 -86.5v-50q0 -58 20 -86.5t71 -28.5z" />
    <glyph glyph-name="y.alt" horiz-adv-x="549" 
d="M50 581h137v-346q0 -61 21 -89t64 -28q50 0 71 30t21 90v343h135v-596q0 -226 -223 -226q-213 0 -213 187h131q0 -70 82 -70q52 0 73.5 26.5t21.5 83.5v71q-39 -60 -125 -60q-94 0 -145 54.5t-51 166.5v363z" />
    <glyph glyph-name="yacute.alt" horiz-adv-x="549" 
d="M50 581h137v-346q0 -61 21 -89t64 -28q50 0 71 30t21 90v343h135v-596q0 -226 -223 -226q-213 0 -213 187h131q0 -70 82 -70q52 0 73.5 26.5t21.5 83.5v71q-39 -60 -125 -60q-94 0 -145 54.5t-51 166.5v363zM409 772l-76 -136h-119l57 136h138z" />
    <glyph glyph-name="ycircumflex.alt" horiz-adv-x="550" 
d="M50 581h137v-346q0 -61 21 -89t64 -28q50 0 71 30t21 90v343h135v-596q0 -226 -223 -226q-213 0 -213 187h131q0 -70 82 -70q52 0 73.5 26.5t21.5 83.5v71q-39 -60 -125 -60q-94 0 -145 54.5t-51 166.5v363zM280 686l-47 -45h-127v10l142 129h64l141 -129v-10h-128z" />
    <glyph glyph-name="ydieresis.alt" horiz-adv-x="548" 
d="M50 581h137v-346q0 -61 21 -89t64 -28q50 0 71 30t21 90v343h135v-596q0 -226 -223 -226q-213 0 -213 187h131q0 -70 82 -70q52 0 73.5 26.5t21.5 83.5v71q-39 -60 -125 -60q-94 0 -145 54.5t-51 166.5v363zM100 722q0 43 36.5 61.5t73.5 1t37 -62.5q0 -31 -23 -49.5
t-50.5 -19.5t-50.5 17.5t-23 51.5zM321 722q0 43 36.5 61.5t73.5 1t37 -62.5q0 -31 -23 -49.5t-50.5 -19.5t-50.5 17.5t-23 51.5z" />
    <glyph glyph-name="ygrave.alt" horiz-adv-x="549" 
d="M50 581h137v-346q0 -61 21 -89t64 -28q50 0 71 30t21 90v343h135v-596q0 -226 -223 -226q-213 0 -213 187h131q0 -70 82 -70q52 0 73.5 26.5t21.5 83.5v71q-39 -60 -125 -60q-94 0 -145 54.5t-51 166.5v363zM238 643l-76 136h138l57 -136h-119z" />
    <glyph glyph-name="_0004" horiz-adv-x="0" 
 />
    <glyph glyph-name="_127" horiz-adv-x="500" 
 />
    <glyph glyph-name="_129" horiz-adv-x="500" 
 />
    <glyph glyph-name="_141" horiz-adv-x="500" 
 />
    </font>
</defs>
</svg>
